<?xml version="1.0" encoding="iso-8859-1"?>
<!-- Generator: Adobe Illustrator 23.0.1, SVG Export Plug-In . SVG Version: 6.00 Build 0)  -->
<svg version="1.1" id="Camada_2" xmlns="http://www.w3.org/2000/svg" xmlns:xlink="http://www.w3.org/1999/xlink" x="0px" y="0px"
	 viewBox="0 0 2500 2500" style="enable-background:new 0 0 2500 2500;" xml:space="preserve">
<path style="fill:#EBEBEB;" d="M951.26,1154.611l-45.116-531.999l-273.09,19.358l61.516,618.673"/>
<path style="fill:#563D7C;" d="M191.418,2035.592c0,150.782,122.225,272.99,272.99,272.99h1571.176
	c150.79,0,272.998-122.225,272.998-272.99V464.416c0-150.79-122.225-272.998-272.99-272.998H464.416
	c-150.79,0-272.998,122.225-272.998,272.99v1571.176V2035.592z"/>
<path style="fill:#FFFFFF;" d="M1069.363,1127.916V828.097h263.909c25.141,0,49.373,2.092,72.711,6.285
	c23.339,4.185,43.989,11.661,61.944,22.437c17.946,10.776,32.312,25.737,43.088,44.882c10.768,19.154,16.16,43.691,16.16,73.605
	c0,53.864-16.16,92.766-48.48,116.7c-32.312,23.942-73.604,35.909-123.879,35.909H1069.363L1069.363,1127.916z M787.491,609.062
	v1281.877h621.189c57.453,0,113.409-7.178,167.868-21.544c54.459-14.365,102.931-36.505,145.423-66.426
	c42.484-29.921,76.301-68.527,101.434-115.799c25.141-47.281,37.704-103.237,37.704-167.868c0-80.196-19.452-148.714-58.346-205.563
	c-38.903-56.858-97.853-96.654-176.849-119.396c57.453-27.523,100.846-62.837,130.173-105.924
	c29.318-43.088,43.981-96.943,43.981-161.583c0-59.843-9.875-110.109-29.624-150.807c-19.749-40.689-47.578-73.307-83.487-97.844
	c-35.901-24.538-78.988-42.194-129.263-52.962c-50.266-10.776-105.924-16.16-166.966-16.16L787.491,609.062L787.491,609.062z
	 M1069.363,1671.903v-351.888h306.997c61.042,0,110.117,14.059,147.226,42.194c37.1,28.127,55.658,75.101,55.658,140.932
	c0,33.519-5.69,61.042-17.061,82.586c-11.372,21.544-26.63,38.605-45.784,51.167c-19.146,12.571-41.293,21.544-66.426,26.936
	c-25.141,5.375-51.465,8.072-78.997,8.072H1069.363L1069.363,1671.903z"/>
</svg>
