<?xml version="1.0" encoding="iso-8859-1"?>
<!-- Generator: Adobe Illustrator 23.0.1, SVG Export Plug-In . SVG Version: 6.00 Build 0)  -->
<svg version="1.1" id="Camada_2" xmlns="http://www.w3.org/2000/svg" xmlns:xlink="http://www.w3.org/1999/xlink" x="0px" y="0px"
	 viewBox="0 0 2500 2500" style="enable-background:new 0 0 2500 2500;" xml:space="preserve">
<path style="fill:#EBEBEB;" d="M951.26,1154.611l-45.116-531.999l-273.09,19.358l61.516,618.673"/>
<path style="fill:#F0DB4F;" d="M191.418,191.418h2117.164v2117.164H191.418V191.418z"/>
<path style="fill:#323330;" d="M2199.936,1803.642c-15.496-96.601-78.488-177.705-265.048-253.375
	c-64.803-29.785-137.052-51.116-158.586-100.223c-7.647-28.578-8.654-44.678-3.824-61.985
	c13.886-56.149,80.903-73.658,134.033-57.558c34.213,11.471,66.614,37.837,86.135,79.897
	c91.368-59.166,91.167-58.765,154.964-99.416c-23.345-36.225-35.823-52.931-51.118-68.425
	c-54.942-61.382-129.807-92.978-249.552-90.563c-20.729,2.616-41.657,5.432-62.388,8.05
	c-59.77,15.094-116.726,46.489-150.134,88.551c-100.223,113.707-71.645,312.743,50.313,394.654
	c120.147,90.161,296.644,110.688,319.185,195.013c21.936,103.242-75.87,136.648-173.076,124.776
	c-71.645-14.893-111.491-51.319-154.561-117.531c-79.291,45.885-79.291,45.885-160.798,92.777
	c19.32,42.263,39.644,61.382,72.048,98.009c153.354,155.567,537.138,147.92,605.968-87.544
	C2196.314,1940.695,2214.831,1886.759,2199.936,1803.642z M1407.006,1164.468h-198.031c0,171.064-0.803,340.92-0.803,511.983
	c0,108.877,5.635,208.698-12.075,239.288c-28.98,60.172-104.047,52.728-138.26,41.053c-34.817-17.106-52.527-41.458-73.054-75.87
	c-5.635-9.861-9.861-17.509-11.272-18.113c-53.732,32.804-107.267,65.807-161.001,98.613
	c26.768,54.942,66.212,102.638,116.726,133.629c75.469,45.281,176.9,59.168,282.961,34.816
	c69.029-20.125,128.598-61.782,159.792-125.176c45.08-83.117,35.42-183.742,35.018-295.034
	C1408.012,1528.129,1407.006,1346.601,1407.006,1164.468L1407.006,1164.468z"/>
</svg>
