<?xml version="1.0" encoding="utf-8"?>
<!-- Generator: Adobe Illustrator 23.0.1, SVG Export Plug-In . SVG Version: 6.00 Build 0)  -->
<svg version="1.1" xmlns="http://www.w3.org/2000/svg" xmlns:xlink="http://www.w3.org/1999/xlink" x="0px" y="0px"
	 viewBox="0 0 1980 1265" style="enable-background:new 0 0 1980 1265;" xml:space="preserve">
<style type="text/css">
	.st0{fill:#FFC149;}
	.st1{fill:#1F1036;stroke:#000000;stroke-miterlimit:10;}
	.st2{fill:url(#SVGID_1_);}
	.st3{fill:url(#SVGID_2_);}
	.st4{fill:url(#SVGID_3_);}
	.st5{fill:url(#SVGID_4_);}
	.st6{fill:#8F383A;}
	.st7{fill:#BF4A4D;}
	.st8{fill:#FF6366;}
	.st9{fill:#803233;}
	.st10{fill:#8442E5;}
	.st11{fill:#6332AC;}
	.st12{fill:#422173;}
	.st13{fill:#BF9137;}
	.st14{fill:#806125;}
	.st15{fill:#3DE6FF;}
	.st16{fill:#2EACBF;}
	.st17{fill:#1E7380;}
	.st18{fill:#91E537;}
	.st19{fill:#6DAC29;}
	.st20{fill:#49731B;}
	.st21{fill:#E5D8F7;}
	.st22{fill:#1C1A16;stroke:#000000;stroke-miterlimit:10;}
	.st23{fill:#D0D4D6;stroke:#000000;stroke-miterlimit:10;}
	.st24{fill:#A4A7A8;}
	.st25{fill:#251515;}
	.st26{fill:#929596;stroke:#000000;stroke-miterlimit:10;}
	.st27{fill:#F2F2F2;stroke:#000000;stroke-miterlimit:10;}
	.st28{opacity:0.4;fill:#3DE6FF;stroke:#B1F5FF;stroke-miterlimit:10;}
</style>
<g id="Camada_3">
	<path class="st0" d="M1831.1,1254H203.3c-30,0-58.3-12.5-75.9-33.8C10.8,1078.6,1.6,921.5,0.4,889.4
		C-7.8,678.2,116.8,532.7,166.1,477c36.7-41.5,176.3-189.6,423.3-246c35.9-8.2,472.6-101.1,740,165c43.3,43.1,75.2,88.6,98.6,133.5
		c15.1,28.9,47.5,47.6,83.6,48.5c104.1,2.5,210.5,32.4,298.6,98.7c125.7,94.7,179.9,237.8,165.7,366.1
		c-7.6,68.9-34,125.8-63.2,169.8C1895.7,1238.2,1864.7,1254,1831.1,1254z"/>
</g>
<g id="Camada_2">
	<rect x="197" y="438" class="st1" width="1144" height="744.8"/>
	<radialGradient id="SVGID_1_" cx="759.7263" cy="779.1536" r="252.0524" gradientUnits="userSpaceOnUse">
		<stop  offset="0" style="stop-color:#FFFFFF"/>
		<stop  offset="0" style="stop-color:#3E1F6C"/>
		<stop  offset="0.509" style="stop-color:#3D1E6A"/>
		<stop  offset="0.6924" style="stop-color:#391D63"/>
		<stop  offset="0.823" style="stop-color:#321958"/>
		<stop  offset="0.9279" style="stop-color:#291547"/>
		<stop  offset="1" style="stop-color:#1F1036"/>
	</radialGradient>
	<path class="st2" d="M1011.8,779.2c0,139.2-112.8,252.1-252.1,252.1c-25.9,0-50.9-3.9-74.5-11.2
		c-102.9-31.7-177.6-127.6-177.6-240.9c0-139.2,112.8-252.1,252.1-252.1c58.1,0,111.6,19.7,154.2,52.7
		C973.5,625.9,1011.8,698,1011.8,779.2z"/>
	<radialGradient id="SVGID_2_" cx="759.7263" cy="779.1536" r="229.1385" gradientUnits="userSpaceOnUse">
		<stop  offset="0" style="stop-color:#FFFFFF"/>
		<stop  offset="0" style="stop-color:#3E1F6C"/>
		<stop  offset="0.509" style="stop-color:#3D1E6A"/>
		<stop  offset="0.6924" style="stop-color:#391D63"/>
		<stop  offset="0.823" style="stop-color:#321958"/>
		<stop  offset="0.9279" style="stop-color:#291547"/>
		<stop  offset="1" style="stop-color:#1F1036"/>
	</radialGradient>
	<path class="st3" d="M988.9,779.2c0,126.6-102.6,229.1-229.1,229.1c-23.6,0-46.3-3.6-67.7-10.2c-93.5-28.9-161.5-116-161.5-219
		c0-126.6,102.6-229.1,229.1-229.1c52.8,0,101.5,17.9,140.2,47.9C954,639.8,988.9,705.4,988.9,779.2z"/>
	<radialGradient id="SVGID_3_" cx="760.8654" cy="779.05" r="208.3077" gradientUnits="userSpaceOnUse">
		<stop  offset="0" style="stop-color:#FFFFFF"/>
		<stop  offset="0" style="stop-color:#3E1F6C"/>
		<stop  offset="0.509" style="stop-color:#3D1E6A"/>
		<stop  offset="0.6924" style="stop-color:#391D63"/>
		<stop  offset="0.823" style="stop-color:#321958"/>
		<stop  offset="0.9279" style="stop-color:#291547"/>
		<stop  offset="1" style="stop-color:#1F1036"/>
	</radialGradient>
	<path class="st4" d="M969.2,779.1c0,115.1-93.3,208.3-208.3,208.3c-21.4,0-42.1-3.2-61.5-9.2c-85-26.2-146.8-105.4-146.8-199.1
		c0-115.1,93.3-208.3,208.3-208.3c48,0,92.2,16.3,127.5,43.5C937.5,652.4,969.2,712,969.2,779.1z"/>
	<radialGradient id="SVGID_4_" cx="759.7263" cy="780.1891" r="189.3707" gradientUnits="userSpaceOnUse">
		<stop  offset="0" style="stop-color:#FFFFFF"/>
		<stop  offset="0" style="stop-color:#3E1F6C"/>
		<stop  offset="0.509" style="stop-color:#3D1E6A"/>
		<stop  offset="0.6924" style="stop-color:#391D63"/>
		<stop  offset="0.823" style="stop-color:#321958"/>
		<stop  offset="0.9279" style="stop-color:#291547"/>
		<stop  offset="1" style="stop-color:#1F1036"/>
	</radialGradient>
	<path class="st5" d="M949.1,780.2c0,104.6-84.8,189.4-189.4,189.4c-19.5,0-38.3-2.9-55.9-8.4c-77.3-23.9-133.4-95.8-133.4-181
		c0-104.6,84.8-189.4,189.4-189.4c43.7,0,83.8,14.8,115.9,39.6C920.3,665,949.1,719.2,949.1,780.2z"/>
	<path class="st6" d="M868.2,913.8c-13.7,11.2-28.7,19.9-44.3,26.1c-8.4,3.4-17,6-25.6,8c-5.1,1.2-10.3,2.1-15.5,2.8
		c5.4-4.3,10.6-8.9,15.5-13.6c66.9-64.4,90.1-166.1,50.4-256.1c-11.4-25.8-27-48.5-45.7-67.5c34.3,8.9,66.2,28.5,90.3,58.1
		C953.3,745.5,942.1,853.9,868.2,913.8z"/>
	<path class="st7" d="M789.6,949.8c2.3-0.4,4.5-0.8,6.8-1.3C794.1,948.9,791.9,949.4,789.6,949.8z"/>
	<path class="st7" d="M815.2,617.2c-1-0.3-2-0.7-3-1C813.2,616.5,814.2,616.9,815.2,617.2L815.2,617.2z"/>
	<g>
		<path class="st8" d="M931.2,796.1C931.2,796.1,931.2,796.2,931.2,796.1c-0.9,9.8-2.6,19.3-5.1,28.6c-2.4,9.1-5.6,18-9.5,26.5
			c-3.9,8.5-8.4,16.7-13.6,24.5c-5.3,7.9-11.2,15.4-17.8,22.4c-6.9,7.3-14.4,14.1-22.5,20.1c-0.2,0.1-0.3,0.2-0.5,0.4
			c-8.7,6.4-18,12.1-28,16.8c-11.1,5.3-23,9.5-35.5,12.4c-0.6,0.2-1.3,0.3-1.9,0.4c-16.6,3.7-33.2,4.8-49.4,3.6
			c-2.9-0.2-5.8-0.5-8.7-0.9c-6.7-0.8-13.3-2-19.7-3.6c-2.2-0.5-4.5-1.1-6.7-1.8c-1.1-0.3-2.2-0.6-3.3-1c-1.1-0.3-2.2-0.7-3.3-1.1
			c-3-1-5.9-2-8.8-3.2c-8.1-3.2-15.9-7-23.4-11.3c-0.3-0.2-0.6-0.3-0.9-0.5c-12.5-7.4-24.2-16.3-34.5-26.6
			c-22.1-22-38.5-50.3-46-82.9c-21.5-92.6,36.2-185.1,128.8-206.6c11.6-2.7,23.3-4.2,34.7-4.4c7.3-0.2,14.5,0.1,21.6,0.8
			c5.6,0.6,11.1,1.4,16.5,2.5c0.8,0.1,1.6,0.3,2.4,0.5c12.3,2.7,24.2,6.6,35.5,11.9c5.7,2.6,11.3,5.6,16.7,8.8c0,0,0,0,0,0
			c4.5,2.7,8.9,5.6,13.1,8.7c3.5,2.6,7,5.3,10.4,8.2c1.6,1.4,3.2,2.8,4.7,4.2c0.8,0.7,1.6,1.4,2.3,2.2c0.8,0.7,1.5,1.5,2.3,2.2
			c9.9,9.8,18.6,20.9,26,33c7.4,12.2,13.3,25.5,17.6,39.7c1,3.4,2,7,2.8,10.5c1.8,7.9,3.1,15.9,3.8,23.8
			C932.2,775.6,932.1,785.9,931.2,796.1z"/>
		<path class="st7" d="M916.5,851.2c3.9-8.5,7.1-17.4,9.5-26.5c2.5-9.3,4.2-18.9,5.1-28.6c0,0,0,0,0,0c1-10.2,1-20.6,0-31.1
			c-0.7-7.9-2-15.8-3.8-23.8c-0.8-3.6-1.8-7.1-2.8-10.5c-4.2-14.2-10.2-27.5-17.6-39.7c-7.3-12.1-16.1-23.2-26-33
			c-0.8-0.7-1.5-1.5-2.3-2.2c-0.8-0.7-1.5-1.5-2.3-2.2c-1.6-1.4-3.1-2.8-4.7-4.2c-3.4-2.9-6.8-5.6-10.4-8.2c-4.2-3.1-8.6-6-13.1-8.7
			c-5.4-3.3-11-6.2-16.7-8.8c-11.3-5.2-23.2-9.2-35.5-11.8l-0.5,1.1c-0.6-0.5-1.2-1.1-1.9-1.6c-5.4-1.1-11-1.9-16.5-2.5
			c-7.1-0.7-14.3-1-21.6-0.8c-0.1,5.4,3.1,10.6,8.2,13.1l23.5,11.5c6.4,3.1,9.6,11.1,7.2,17.8c0,0.1-0.1,0.2-0.1,0.3
			c-2.8,8,0.8,16.9,8.4,20.6l11.3,5.5c6.4,3.1,9.8,10.6,7.4,17.4c-2.9,8-11.9,11.5-19.3,7.9L778,690.3c-3.5-1.7-7.3-1.8-10.7-0.7
			c-3.9,1.4-7.2,4.4-8.7,8.8c-2.3,6.7,1.1,14.1,7.5,17.2l39.4,19.2c6.4,3.1,9.8,10.6,7.4,17.4c-2.9,8-11.9,11.5-19.3,7.9L759,743.3
			c-3.5-1.7-7.3-1.8-10.7-0.7c-3.9,1.4-7.2,4.4-8.7,8.8c-2.3,6.7,1.1,14.1,7.5,17.2l23.5,11.5c6.4,3.1,9.8,10.6,7.4,17.4
			c-2.9,8-11.9,11.5-19.3,7.9l-24.2-11.8c-3.5-1.7-7.3-1.8-10.7-0.7c-3.9,1.4-7.2,4.4-8.7,8.8c-2.3,6.7,1.1,14.1,7.5,17.2l28.2,13.8
			c6.4,3.1,9.8,10.6,7.4,17.4c-2.9,8-11.9,11.5-19.3,7.9l-8.8-4.3c-7.6-3.7-16.8-1.1-21.4,6c-0.1,0.1-0.1,0.2-0.2,0.3
			c-3.8,6-12.1,8.4-18.5,5.2l-31.3-15.3c-3.5-1.7-7.3-1.8-10.7-0.7c-3.9,1.4-7.2,4.4-8.7,8.8c-2.3,6.7,1.1,14.1,7.5,17.2l20.8,10.1
			c6.4,3.1,9.8,10.6,7.4,17.4c-2.9,8-11.9,11.5-19.3,7.9L638,902c10.4,10.3,22,19.3,34.5,26.6c7.8,4.6,15.9,8.5,24.3,11.8
			c2.9,1.1,5.8,2.2,8.8,3.2c1.1,0.4,2.2,0.7,3.3,1c1.1,0.3,2.2,0.7,3.3,1c2.2,0.6,4.4,1.2,6.7,1.8c6.5,1.6,13.1,2.8,19.7,3.6
			c2.9,0.4,5.8,0.6,8.7,0.9c16.2,1.2,32.7,0,49.4-3.6c0.6-0.1,1.3-0.3,1.9-0.4c12.5-2.9,24.4-7.1,35.5-12.4
			c10-4.8,19.3-10.4,28-16.8c0.2-0.1,0.3-0.2,0.5-0.4c8.1-6.1,15.7-12.8,22.5-20.1c6.6-7,12.5-14.5,17.8-22.4
			C908.1,867.9,912.7,859.8,916.5,851.2z M816.1,634.6c-0.3-0.3-0.5-0.6-0.8-1l1,0.5L816.1,634.6z M663.4,913.3
			C663.4,913.3,663.4,913.3,663.4,913.3C663.4,913.3,663.4,913.3,663.4,913.3C663.5,913.3,663.5,913.3,663.4,913.3z"/>
		<path class="st9" d="M931.2,796.1C931.2,796.1,931.2,796.2,931.2,796.1c-0.9,9.8-2.6,19.3-5.1,28.6c-2.4,9.1-5.6,18-9.5,26.5
			c-3.9,8.5-8.4,16.7-13.6,24.5c-5.3,7.9-11.2,15.4-17.8,22.4c-6.9,7.3-14.4,14.1-22.5,20.1c-0.2,0.1-0.3,0.2-0.5,0.4
			c-8.7,6.4-18,12.1-28,16.8c-11.1,5.3-23,9.5-35.5,12.4c-0.6,0.2-1.3,0.3-1.9,0.4c-16.6,3.7-33.2,4.8-49.4,3.6
			c-2.9-0.2-5.8-0.5-8.7-0.9c-6.7-0.8-13.3-2-19.7-3.6c-2.2-0.5-4.5-1.1-6.7-1.8c-1.1-0.3-2.2-0.6-3.3-1c-1.1-0.3-2.2-0.7-3.3-1.1
			c-3-1-5.9-2-8.8-3.2c-8.1-3.2-15.9-7-23.4-11.3c-0.3-0.2-0.6-0.3-0.9-0.5c1.4-1.3,3.1-2.3,4.8-2.9c3.4-1.2,7.2-1,10.7,0.7
			l45.6,22.2c0.4,0.2,0.9,0.4,1.3,0.6l0.2,0.1c7.1,2.5,15.1-1.1,17.7-8.5c2.4-6.8-0.9-14.2-7.4-17.4l-20.7-10.1
			c-6.4-3.1-9.7-10.5-7.5-17.2c1.5-4.4,4.8-7.4,8.7-8.8c3.4-1.2,7.2-1,10.7,0.7l31.3,15.3c6.4,3.1,14.7,0.7,18.5-5.2
			c0.1-0.1,0.1-0.2,0.2-0.3c4.6-7.2,13.8-9.8,21.4-6l8.8,4.3c7.4,3.6,16.5,0.1,19.3-7.9c2.4-6.7-0.9-14.2-7.4-17.4l-28.2-13.8
			c-6.4-3.1-9.7-10.5-7.4-17.2c1.5-4.4,4.8-7.4,8.7-8.8c3.4-1.2,7.2-1,10.7,0.7l24.2,11.8c7.4,3.6,16.4,0.1,19.3-7.9
			c2.4-6.8-0.9-14.2-7.4-17.4l-23.5-11.5c-6.4-3.1-9.7-10.5-7.5-17.2c1.5-4.4,4.8-7.4,8.7-8.8c3.4-1.2,7.2-1,10.7,0.7l34.4,16.8
			c7.4,3.6,16.5,0.1,19.3-7.9c2.4-6.8-0.9-14.2-7.4-17.4l-39.4-19.2c-6.4-3.1-9.7-10.5-7.5-17.2c1.5-4.4,4.8-7.4,8.7-8.8
			c3.4-1.2,7.2-1,10.7,0.7l24.2,11.8c7.4,3.6,16.5,0.1,19.3-7.9c2.4-6.8-0.9-14.2-7.4-17.4l-11.3-5.5c-7.6-3.7-11.2-12.6-8.4-20.6
			c0-0.1,0.1-0.2,0.1-0.3c2.4-6.7-0.9-14.7-7.2-17.8l-23.5-11.5c-6.4-3.1-9.7-10.5-7.5-17.2c1.5-4.4,4.8-7.4,8.7-8.8
			c1.6-0.5,3.4-0.8,5.1-0.7v0c0,0,0,0,0,0c4.5,2.7,8.9,5.6,13.1,8.7c3.5,2.6,7,5.3,10.4,8.2c1.6,1.4,3.2,2.8,4.7,4.2
			c0.8,0.7,1.6,1.4,2.3,2.2c0.8,0.7,1.5,1.5,2.3,2.2c9.9,9.8,18.6,20.9,26,33c7.4,12.2,13.3,25.5,17.6,39.7c1,3.4,2,7,2.8,10.5
			c1.8,7.9,3.1,15.9,3.8,23.8C932.2,775.6,932.1,785.9,931.2,796.1z"/>
	</g>
	<g>
		<path class="st10" d="M414.6,1084.1c-1,1.6-2.2,3-3.5,4.4c-1.4,1.4-2.8,2.8-4.4,4c0,0-0.1,0-0.1,0.1c-1.7,1.3-3.5,2.4-5.5,3.3
			c-2.2,1-4.5,1.9-7,2.4c-0.1,0-0.2,0.1-0.4,0.1c-3.3,0.7-6.5,0.9-9.7,0.7c-0.6,0-1.1-0.1-1.7-0.2c-1.3-0.2-2.6-0.4-3.9-0.7
			c-0.4-0.1-0.9-0.2-1.3-0.3c-0.2-0.1-0.4-0.1-0.7-0.2c-0.2-0.1-0.4-0.1-0.6-0.2c-0.6-0.2-1.2-0.4-1.7-0.6c-1.7-0.6-3.2-1.4-4.8-2.3
			c-2.5-1.4-4.7-3.2-6.8-5.2c-4.3-4.3-7.6-9.9-9-16.3c-4.2-18.2,7.1-36.4,25.3-40.6c2.3-0.5,4.6-0.8,6.8-0.9c1.4,0,2.8,0,4.2,0.2
			c1.1,0.1,2.2,0.3,3.3,0.5c0.2,0,0.3,0.1,0.5,0.1c2.4,0.5,4.8,1.3,7,2.3c1.1,0.5,2.2,1.1,3.3,1.7c0.9,0.5,1.7,1.1,2.6,1.7
			c0.7,0.5,1.4,1.1,2,1.6c0.3,0.3,0.6,0.5,0.9,0.8c0.2,0.1,0.3,0.3,0.5,0.4c0.2,0.1,0.3,0.3,0.4,0.4c1.9,1.9,3.7,4.1,5.1,6.5
			c1.5,2.4,2.6,5,3.5,7.8c0.2,0.7,0.4,1.4,0.5,2.1c0.4,1.6,0.6,3.1,0.7,4.7c0.2,2.1,0.2,4.1,0,6.1c0,0,0,0,0,0
			c-0.2,1.9-0.5,3.8-1,5.6c-0.5,1.8-1.1,3.5-1.9,5.2C416.5,1081,415.6,1082.6,414.6,1084.1z"/>
		<path class="st11" d="M417.3,1079.3c0.8-1.7,1.4-3.4,1.9-5.2c0.5-1.8,0.8-3.7,1-5.6c0,0,0,0,0,0c0.2-2,0.2-4,0-6.1
			c-0.1-1.6-0.4-3.1-0.7-4.7c-0.2-0.7-0.3-1.4-0.5-2.1c-0.8-2.8-2-5.4-3.5-7.8c-1.4-2.4-3.2-4.6-5.1-6.5c-0.1-0.1-0.3-0.3-0.4-0.4
			c-0.1-0.1-0.3-0.3-0.5-0.4c-0.3-0.3-0.6-0.6-0.9-0.8c-0.7-0.6-1.3-1.1-2-1.6c-0.8-0.6-1.7-1.2-2.6-1.7c-1.1-0.6-2.2-1.2-3.3-1.7
			c-2.2-1-4.6-1.8-7-2.3l-0.1,0.2c-0.1-0.1-0.2-0.2-0.4-0.3c-1.1-0.2-2.2-0.4-3.3-0.5c-1.4-0.1-2.8-0.2-4.2-0.2
			c0,1.1,0.6,2.1,1.6,2.6l4.6,2.3c1.2,0.6,1.9,2.2,1.4,3.5c0,0,0,0,0,0.1c-0.6,1.6,0.1,3.3,1.7,4.1l2.2,1.1c1.3,0.6,1.9,2.1,1.5,3.4
			c-0.6,1.6-2.3,2.3-3.8,1.6l-4.8-2.3c-0.7-0.3-1.4-0.4-2.1-0.1c-0.8,0.3-1.4,0.9-1.7,1.7c-0.5,1.3,0.2,2.8,1.5,3.4l7.7,3.8
			c1.3,0.6,1.9,2.1,1.5,3.4c-0.6,1.6-2.3,2.3-3.8,1.6l-6.8-3.3c-0.7-0.3-1.4-0.4-2.1-0.1c-0.8,0.3-1.4,0.9-1.7,1.7
			c-0.5,1.3,0.2,2.8,1.5,3.4l4.6,2.3c1.3,0.6,1.9,2.1,1.5,3.4c-0.6,1.6-2.3,2.3-3.8,1.6l-4.8-2.3c-0.7-0.3-1.4-0.4-2.1-0.1
			c-0.8,0.3-1.4,0.9-1.7,1.7c-0.5,1.3,0.2,2.8,1.5,3.4l5.5,2.7c1.3,0.6,1.9,2.1,1.5,3.4c-0.6,1.6-2.3,2.3-3.8,1.6l-1.7-0.8
			c-1.5-0.7-3.3-0.2-4.2,1.2c0,0,0,0,0,0.1c-0.7,1.2-2.4,1.6-3.6,1l-6.2-3c-0.7-0.3-1.4-0.4-2.1-0.1c-0.8,0.3-1.4,0.9-1.7,1.7
			c-0.5,1.3,0.2,2.8,1.5,3.4l4.1,2c1.3,0.6,1.9,2.1,1.5,3.4c-0.6,1.6-2.3,2.3-3.8,1.6l-3.4-1.7c2,2,4.3,3.8,6.8,5.2
			c1.5,0.9,3.1,1.7,4.8,2.3c0.6,0.2,1.1,0.4,1.7,0.6c0.2,0.1,0.4,0.1,0.6,0.2c0.2,0.1,0.4,0.1,0.7,0.2c0.4,0.1,0.9,0.2,1.3,0.3
			c1.3,0.3,2.6,0.6,3.9,0.7c0.6,0.1,1.1,0.1,1.7,0.2c3.2,0.2,6.4,0,9.7-0.7c0.1,0,0.3-0.1,0.4-0.1c2.5-0.6,4.8-1.4,7-2.4
			c2-0.9,3.8-2,5.5-3.3c0,0,0.1,0,0.1-0.1c1.6-1.2,3.1-2.5,4.4-4c1.3-1.4,2.5-2.8,3.5-4.4C415.6,1082.6,416.5,1081,417.3,1079.3z
			 M397.5,1036.7c-0.1-0.1-0.1-0.1-0.2-0.2L397.5,1036.7L397.5,1036.7z M367.5,1091.5C367.5,1091.5,367.5,1091.5,367.5,1091.5
			C367.5,1091.5,367.5,1091.5,367.5,1091.5C367.5,1091.5,367.5,1091.5,367.5,1091.5z"/>
		<path class="st12" d="M417.3,1079.3c0.8-1.7,1.4-3.4,1.9-5.2c0.5-1.8,0.8-3.7,1-5.6l-0.1-0.1c0,0,0.1,0,0.1,0.1c0.2-2,0.2-4,0-6.1
			c-0.1-1.6-0.4-3.1-0.7-4.7c-0.2-0.7-0.3-1.4-0.5-2.1c-0.8-2.8-2-5.4-3.5-7.8c-1.9-3.1-4.2-5.9-6.9-8.2c-0.7-0.6-1.3-1.1-2-1.6
			c-0.8-0.6-1.7-1.2-2.6-1.7c-0.3,0-0.7,0-1,0.1c-0.8,0.3-1.4,0.9-1.7,1.7c-0.5,1.3,0.2,2.8,1.5,3.4l4.6,2.3
			c1.3,0.6,1.9,2.2,1.4,3.5c0,0,0,0,0,0.1c-0.6,1.6,0.1,3.3,1.7,4.1l2.2,1.1c1.3,0.6,1.9,2.1,1.5,3.4c-0.6,1.6-2.3,2.3-3.8,1.6
			l-4.8-2.3c-0.7-0.3-1.4-0.4-2.1-0.1c-0.8,0.3-1.4,0.9-1.7,1.7c-0.5,1.3,0.2,2.8,1.5,3.4l7.7,3.8c1.3,0.6,1.9,2.1,1.5,3.4
			c-0.6,1.6-2.3,2.3-3.8,1.6l-6.8-3.3c-0.7-0.3-1.4-0.4-2.1-0.1c-0.8,0.3-1.4,0.9-1.7,1.7c-0.5,1.3,0.2,2.8,1.5,3.4l4.6,2.3
			c1.3,0.6,1.9,2.1,1.5,3.4c-0.6,1.6-2.3,2.3-3.8,1.6l-4.8-2.3c-0.7-0.3-1.4-0.4-2.1-0.1c-0.8,0.3-1.4,0.9-1.7,1.7
			c-0.5,1.3,0.2,2.8,1.5,3.4l5.5,2.7c1.3,0.6,1.9,2.1,1.5,3.4c-0.6,1.6-2.3,2.3-3.8,1.6l-1.7-0.8c-1.5-0.7-3.3-0.2-4.2,1.2
			c0,0,0,0,0,0.1c-0.7,1.2-2.4,1.6-3.6,1l-6.2-3c-0.7-0.3-1.4-0.4-2.1-0.1c-0.8,0.3-1.4,0.9-1.7,1.7c-0.5,1.3,0.2,2.8,1.5,3.4l4.1,2
			c1.3,0.6,1.9,2.1,1.5,3.4c-0.6,1.6-2.3,2.3-3.8,1.6l-9-4.4c-0.7-0.3-1.4-0.4-2.1-0.1c-0.3,0.1-0.7,0.3-1,0.6
			c1.5,0.9,3.1,1.7,4.8,2.3c0.6,0.2,1.1,0.4,1.7,0.6c2.1,0.7,4.3,1.2,6.5,1.5c0.6,0.1,1.1,0.1,1.7,0.2c3.2,0.2,6.4,0,9.7-0.7
			c0.1,0,0.3-0.1,0.4-0.1c2.5-0.6,4.8-1.4,7-2.4c2-0.9,3.8-2,5.5-3.3c3.3-2.6,3.2-2.6,4.5-4c1.3-1.4,2.5-2.8,3.5-4.4
			C415.6,1082.6,416.5,1081,417.3,1079.3z"/>
	</g>
	<g>
		<path class="st0" d="M1143.6,1022c-1,1.6-2.2,3-3.5,4.4c-1.4,1.4-2.8,2.8-4.4,4c0,0-0.1,0-0.1,0.1c-1.7,1.3-3.5,2.4-5.5,3.3
			c-2.2,1-4.5,1.9-7,2.4c-0.1,0-0.2,0.1-0.4,0.1c-3.3,0.7-6.5,0.9-9.7,0.7c-0.6,0-1.1-0.1-1.7-0.2c-1.3-0.2-2.6-0.4-3.9-0.7
			c-0.4-0.1-0.9-0.2-1.3-0.3c-0.2-0.1-0.4-0.1-0.7-0.2c-0.2-0.1-0.4-0.1-0.6-0.2c-0.6-0.2-1.2-0.4-1.7-0.6c-1.7-0.6-3.2-1.4-4.8-2.3
			c-2.5-1.4-4.7-3.2-6.8-5.2c-4.3-4.3-7.6-9.9-9-16.3c-4.2-18.2,7.1-36.4,25.3-40.6c2.3-0.5,4.6-0.8,6.8-0.9c1.4,0,2.8,0,4.2,0.2
			c1.1,0.1,2.2,0.3,3.3,0.5c0.2,0,0.3,0.1,0.5,0.1c2.4,0.5,4.8,1.3,7,2.3c1.1,0.5,2.2,1.1,3.3,1.7c0.9,0.5,1.7,1.1,2.6,1.7
			c0.7,0.5,1.4,1.1,2,1.6c0.3,0.3,0.6,0.5,0.9,0.8c0.2,0.1,0.3,0.3,0.5,0.4c0.2,0.1,0.3,0.3,0.4,0.4c1.9,1.9,3.7,4.1,5.1,6.5
			c1.5,2.4,2.6,5,3.5,7.8c0.2,0.7,0.4,1.4,0.5,2.1c0.4,1.6,0.6,3.1,0.7,4.7c0.2,2.1,0.2,4.1,0,6.1c0,0,0,0,0,0
			c-0.2,1.9-0.5,3.8-1,5.6c-0.5,1.8-1.1,3.5-1.9,5.2C1145.5,1018.9,1144.6,1020.5,1143.6,1022z"/>
		<path class="st13" d="M1146.3,1017.2c0.8-1.7,1.4-3.4,1.9-5.2c0.5-1.8,0.8-3.7,1-5.6c0,0,0,0,0,0c0.2-2,0.2-4,0-6.1
			c-0.1-1.6-0.4-3.1-0.7-4.7c-0.2-0.7-0.3-1.4-0.5-2.1c-0.8-2.8-2-5.4-3.5-7.8c-1.4-2.4-3.2-4.6-5.1-6.5c-0.1-0.1-0.3-0.3-0.4-0.4
			c-0.1-0.1-0.3-0.3-0.5-0.4c-0.3-0.3-0.6-0.6-0.9-0.8c-0.7-0.6-1.3-1.1-2-1.6c-0.8-0.6-1.7-1.2-2.6-1.7c-1.1-0.6-2.2-1.2-3.3-1.7
			c-2.2-1-4.6-1.8-7-2.3l-0.1,0.2c-0.1-0.1-0.2-0.2-0.4-0.3c-1.1-0.2-2.2-0.4-3.3-0.5c-1.4-0.1-2.8-0.2-4.2-0.2
			c0,1.1,0.6,2.1,1.6,2.6l4.6,2.3c1.2,0.6,1.9,2.2,1.4,3.5c0,0,0,0,0,0.1c-0.6,1.6,0.1,3.3,1.7,4.1l2.2,1.1c1.3,0.6,1.9,2.1,1.5,3.4
			c-0.6,1.6-2.3,2.3-3.8,1.6l-4.8-2.3c-0.7-0.3-1.4-0.4-2.1-0.1c-0.8,0.3-1.4,0.9-1.7,1.7c-0.5,1.3,0.2,2.8,1.5,3.4l7.7,3.8
			c1.3,0.6,1.9,2.1,1.5,3.4c-0.6,1.6-2.3,2.3-3.8,1.6l-6.8-3.3c-0.7-0.3-1.4-0.4-2.1-0.1c-0.8,0.3-1.4,0.9-1.7,1.7
			c-0.5,1.3,0.2,2.8,1.5,3.4l4.6,2.3c1.3,0.6,1.9,2.1,1.5,3.4c-0.6,1.6-2.3,2.3-3.8,1.6l-4.8-2.3c-0.7-0.3-1.4-0.4-2.1-0.1
			c-0.8,0.3-1.4,0.9-1.7,1.7c-0.5,1.3,0.2,2.8,1.5,3.4l5.5,2.7c1.3,0.6,1.9,2.1,1.5,3.4c-0.6,1.6-2.3,2.3-3.8,1.6l-1.7-0.8
			c-1.5-0.7-3.3-0.2-4.2,1.2c0,0,0,0,0,0.1c-0.7,1.2-2.4,1.6-3.6,1l-6.2-3c-0.7-0.3-1.4-0.4-2.1-0.1c-0.8,0.3-1.4,0.9-1.7,1.7
			c-0.5,1.3,0.2,2.8,1.5,3.4l4.1,2c1.3,0.6,1.9,2.1,1.5,3.4c-0.6,1.6-2.3,2.3-3.8,1.6l-3.4-1.7c2,2,4.3,3.8,6.8,5.2
			c1.5,0.9,3.1,1.7,4.8,2.3c0.6,0.2,1.1,0.4,1.7,0.6c0.2,0.1,0.4,0.1,0.6,0.2c0.2,0.1,0.4,0.1,0.7,0.2c0.4,0.1,0.9,0.2,1.3,0.3
			c1.3,0.3,2.6,0.6,3.9,0.7c0.6,0.1,1.1,0.1,1.7,0.2c3.2,0.2,6.4,0,9.7-0.7c0.1,0,0.3-0.1,0.4-0.1c2.5-0.6,4.8-1.4,7-2.4
			c2-0.9,3.8-2,5.5-3.3c0,0,0.1,0,0.1-0.1c1.6-1.2,3.1-2.5,4.4-4c1.3-1.4,2.5-2.8,3.5-4.4
			C1144.6,1020.5,1145.5,1018.9,1146.3,1017.2z M1126.6,974.6c-0.1-0.1-0.1-0.1-0.2-0.2L1126.6,974.6L1126.6,974.6z M1096.5,1029.4
			C1096.5,1029.4,1096.5,1029.4,1096.5,1029.4C1096.5,1029.4,1096.5,1029.4,1096.5,1029.4
			C1096.6,1029.4,1096.5,1029.4,1096.5,1029.4z"/>
		<path class="st14" d="M1146.3,1017.2c0.8-1.7,1.4-3.4,1.9-5.2c0.5-1.8,0.8-3.7,1-5.6l-0.1-0.1c0,0,0.1,0,0.1,0.1
			c0.2-2,0.2-4,0-6.1c-0.1-1.6-0.4-3.1-0.7-4.7c-0.2-0.7-0.3-1.4-0.5-2.1c-0.8-2.8-2-5.4-3.5-7.8c-1.9-3.1-4.2-5.9-6.9-8.2
			c-0.7-0.6-1.3-1.1-2-1.6c-0.8-0.6-1.7-1.2-2.6-1.7c-0.3,0-0.7,0-1,0.1c-0.8,0.3-1.4,0.9-1.7,1.7c-0.5,1.3,0.2,2.8,1.5,3.4l4.6,2.3
			c1.3,0.6,1.9,2.2,1.4,3.5c0,0,0,0,0,0.1c-0.6,1.6,0.1,3.3,1.7,4.1l2.2,1.1c1.3,0.6,1.9,2.1,1.5,3.4c-0.6,1.6-2.3,2.3-3.8,1.6
			l-4.8-2.3c-0.7-0.3-1.4-0.4-2.1-0.1c-0.8,0.3-1.4,0.9-1.7,1.7c-0.5,1.3,0.2,2.8,1.5,3.4l7.7,3.8c1.3,0.6,1.9,2.1,1.5,3.4
			c-0.6,1.6-2.3,2.3-3.8,1.6l-6.8-3.3c-0.7-0.3-1.4-0.4-2.1-0.1c-0.8,0.3-1.4,0.9-1.7,1.7c-0.5,1.3,0.2,2.8,1.5,3.4l4.6,2.3
			c1.3,0.6,1.9,2.1,1.5,3.4c-0.6,1.6-2.3,2.3-3.8,1.6l-4.8-2.3c-0.7-0.3-1.4-0.4-2.1-0.1c-0.8,0.3-1.4,0.9-1.7,1.7
			c-0.5,1.3,0.2,2.8,1.5,3.4l5.5,2.7c1.3,0.6,1.9,2.1,1.5,3.4c-0.6,1.6-2.3,2.3-3.8,1.6l-1.7-0.8c-1.5-0.7-3.3-0.2-4.2,1.2
			c0,0,0,0,0,0.1c-0.7,1.2-2.4,1.6-3.6,1l-6.2-3c-0.7-0.3-1.4-0.4-2.1-0.1c-0.8,0.3-1.4,0.9-1.7,1.7c-0.5,1.3,0.2,2.8,1.5,3.4l4.1,2
			c1.3,0.6,1.9,2.1,1.5,3.4c-0.6,1.6-2.3,2.3-3.8,1.6l-9-4.4c-0.7-0.3-1.4-0.4-2.1-0.1c-0.3,0.1-0.7,0.3-1,0.6
			c1.5,0.9,3.1,1.7,4.8,2.3c0.6,0.2,1.1,0.4,1.7,0.6c2.1,0.7,4.3,1.2,6.5,1.5c0.6,0.1,1.1,0.1,1.7,0.2c3.2,0.2,6.4,0,9.7-0.7
			c0.1,0,0.3-0.1,0.4-0.1c2.5-0.6,4.8-1.4,7-2.4c2-0.9,3.8-2,5.5-3.3c3.3-2.6,3.2-2.6,4.5-4c1.3-1.4,2.5-2.8,3.5-4.4
			C1144.6,1020.5,1145.5,1018.9,1146.3,1017.2z"/>
	</g>
	<g>
		<path class="st15" d="M1247.2,714.5c-1,1.6-2.2,3-3.5,4.4c-1.4,1.4-2.8,2.8-4.4,4c0,0-0.1,0-0.1,0.1c-1.7,1.3-3.5,2.4-5.5,3.3
			c-2.2,1-4.5,1.9-7,2.4c-0.1,0-0.2,0.1-0.4,0.1c-3.3,0.7-6.5,0.9-9.7,0.7c-0.6,0-1.1-0.1-1.7-0.2c-1.3-0.2-2.6-0.4-3.9-0.7
			c-0.4-0.1-0.9-0.2-1.3-0.3c-0.2-0.1-0.4-0.1-0.7-0.2c-0.2-0.1-0.4-0.1-0.6-0.2c-0.6-0.2-1.2-0.4-1.7-0.6c-1.7-0.6-3.2-1.4-4.8-2.3
			c-2.5-1.4-4.7-3.2-6.8-5.2c-4.3-4.3-7.6-9.9-9-16.3c-4.2-18.2,7.1-36.4,25.3-40.6c2.3-0.5,4.6-0.8,6.8-0.9c1.4,0,2.8,0,4.2,0.2
			c1.1,0.1,2.2,0.3,3.3,0.5c0.2,0,0.3,0.1,0.5,0.1c2.4,0.5,4.8,1.3,7,2.3c1.1,0.5,2.2,1.1,3.3,1.7c0.9,0.5,1.7,1.1,2.6,1.7
			c0.7,0.5,1.4,1.1,2,1.6c0.3,0.3,0.6,0.5,0.9,0.8c0.2,0.1,0.3,0.3,0.5,0.4c0.2,0.1,0.3,0.3,0.4,0.4c1.9,1.9,3.7,4.1,5.1,6.5
			c1.5,2.4,2.6,5,3.5,7.8c0.2,0.7,0.4,1.4,0.5,2.1c0.4,1.6,0.6,3.1,0.7,4.7c0.2,2.1,0.2,4.1,0,6.1c0,0,0,0,0,0
			c-0.2,1.9-0.5,3.8-1,5.6c-0.5,1.8-1.1,3.5-1.9,5.2C1249.1,711.3,1248.2,712.9,1247.2,714.5z"/>
		<path class="st16" d="M1249.9,709.6c0.8-1.7,1.4-3.4,1.9-5.2c0.5-1.8,0.8-3.7,1-5.6c0,0,0,0,0,0c0.2-2,0.2-4,0-6.1
			c-0.1-1.6-0.4-3.1-0.7-4.7c-0.2-0.7-0.3-1.4-0.5-2.1c-0.8-2.8-2-5.4-3.5-7.8c-1.4-2.4-3.2-4.6-5.1-6.5c-0.1-0.1-0.3-0.3-0.4-0.4
			c-0.1-0.1-0.3-0.3-0.5-0.4c-0.3-0.3-0.6-0.6-0.9-0.8c-0.7-0.6-1.3-1.1-2-1.6c-0.8-0.6-1.7-1.2-2.6-1.7c-1.1-0.6-2.2-1.2-3.3-1.7
			c-2.2-1-4.6-1.8-7-2.3l-0.1,0.2c-0.1-0.1-0.2-0.2-0.4-0.3c-1.1-0.2-2.2-0.4-3.3-0.5c-1.4-0.1-2.8-0.2-4.2-0.2
			c0,1.1,0.6,2.1,1.6,2.6l4.6,2.3c1.2,0.6,1.9,2.2,1.4,3.5c0,0,0,0,0,0.1c-0.6,1.6,0.1,3.3,1.7,4.1l2.2,1.1c1.3,0.6,1.9,2.1,1.5,3.4
			c-0.6,1.6-2.3,2.3-3.8,1.6l-4.8-2.3c-0.7-0.3-1.4-0.4-2.1-0.1c-0.8,0.3-1.4,0.9-1.7,1.7c-0.5,1.3,0.2,2.8,1.5,3.4l7.7,3.8
			c1.3,0.6,1.9,2.1,1.5,3.4c-0.6,1.6-2.3,2.3-3.8,1.6l-6.8-3.3c-0.7-0.3-1.4-0.4-2.1-0.1c-0.8,0.3-1.4,0.9-1.7,1.7
			c-0.5,1.3,0.2,2.8,1.5,3.4l4.6,2.3c1.3,0.6,1.9,2.1,1.5,3.4c-0.6,1.6-2.3,2.3-3.8,1.6l-4.8-2.3c-0.7-0.3-1.4-0.4-2.1-0.1
			c-0.8,0.3-1.4,0.9-1.7,1.7c-0.5,1.3,0.2,2.8,1.5,3.4l5.5,2.7c1.3,0.6,1.9,2.1,1.5,3.4c-0.6,1.6-2.3,2.3-3.8,1.6l-1.7-0.8
			c-1.5-0.7-3.3-0.2-4.2,1.2c0,0,0,0,0,0.1c-0.7,1.2-2.4,1.6-3.6,1l-6.2-3c-0.7-0.3-1.4-0.4-2.1-0.1c-0.8,0.3-1.4,0.9-1.7,1.7
			c-0.5,1.3,0.2,2.8,1.5,3.4l4.1,2c1.3,0.6,1.9,2.1,1.5,3.4c-0.6,1.6-2.3,2.3-3.8,1.6l-3.4-1.7c2,2,4.3,3.8,6.8,5.2
			c1.5,0.9,3.1,1.7,4.8,2.3c0.6,0.2,1.1,0.4,1.7,0.6c0.2,0.1,0.4,0.1,0.6,0.2c0.2,0.1,0.4,0.1,0.7,0.2c0.4,0.1,0.9,0.2,1.3,0.3
			c1.3,0.3,2.6,0.6,3.9,0.7c0.6,0.1,1.1,0.1,1.7,0.2c3.2,0.2,6.4,0,9.7-0.7c0.1,0,0.3-0.1,0.4-0.1c2.5-0.6,4.8-1.4,7-2.4
			c2-0.9,3.8-2,5.5-3.3c0,0,0.1,0,0.1-0.1c1.6-1.2,3.1-2.5,4.4-4c1.3-1.4,2.5-2.8,3.5-4.4C1248.2,712.9,1249.1,711.3,1249.9,709.6z
			 M1230.1,667c-0.1-0.1-0.1-0.1-0.2-0.2L1230.1,667L1230.1,667z M1200.1,721.8C1200.1,721.8,1200.1,721.8,1200.1,721.8
			C1200.1,721.8,1200.1,721.8,1200.1,721.8C1200.1,721.8,1200.1,721.8,1200.1,721.8z"/>
		<path class="st17" d="M1249.9,709.6c0.8-1.7,1.4-3.4,1.9-5.2c0.5-1.8,0.8-3.7,1-5.6l-0.1-0.1c0,0,0.1,0,0.1,0.1c0.2-2,0.2-4,0-6.1
			c-0.1-1.6-0.4-3.1-0.7-4.7c-0.2-0.7-0.3-1.4-0.5-2.1c-0.8-2.8-2-5.4-3.5-7.8c-1.9-3.1-4.2-5.9-6.9-8.2c-0.7-0.6-1.3-1.1-2-1.6
			c-0.8-0.6-1.7-1.2-2.6-1.7c-0.3,0-0.7,0-1,0.1c-0.8,0.3-1.4,0.9-1.7,1.7c-0.5,1.3,0.2,2.8,1.5,3.4l4.6,2.3
			c1.3,0.6,1.9,2.2,1.4,3.5c0,0,0,0,0,0.1c-0.6,1.6,0.1,3.3,1.7,4.1l2.2,1.1c1.3,0.6,1.9,2.1,1.5,3.4c-0.6,1.6-2.3,2.3-3.8,1.6
			l-4.8-2.3c-0.7-0.3-1.4-0.4-2.1-0.1c-0.8,0.3-1.4,0.9-1.7,1.7c-0.5,1.3,0.2,2.8,1.5,3.4l7.7,3.8c1.3,0.6,1.9,2.1,1.5,3.4
			c-0.6,1.6-2.3,2.3-3.8,1.6l-6.8-3.3c-0.7-0.3-1.4-0.4-2.1-0.1c-0.8,0.3-1.4,0.9-1.7,1.7c-0.5,1.3,0.2,2.8,1.5,3.4l4.6,2.3
			c1.3,0.6,1.9,2.1,1.5,3.4c-0.6,1.6-2.3,2.3-3.8,1.6l-4.8-2.3c-0.7-0.3-1.4-0.4-2.1-0.1c-0.8,0.3-1.4,0.9-1.7,1.7
			c-0.5,1.3,0.2,2.8,1.5,3.4l5.5,2.7c1.3,0.6,1.9,2.1,1.5,3.4c-0.6,1.6-2.3,2.3-3.8,1.6l-1.7-0.8c-1.5-0.7-3.3-0.2-4.2,1.2
			c0,0,0,0,0,0.1c-0.7,1.2-2.4,1.6-3.6,1l-6.2-3c-0.7-0.3-1.4-0.4-2.1-0.1c-0.8,0.3-1.4,0.9-1.7,1.7c-0.5,1.3,0.2,2.8,1.5,3.4l4.1,2
			c1.3,0.6,1.9,2.1,1.5,3.4c-0.6,1.6-2.3,2.3-3.8,1.6l-9-4.4c-0.7-0.3-1.4-0.4-2.1-0.1c-0.3,0.1-0.7,0.3-1,0.6
			c1.5,0.9,3.1,1.7,4.8,2.3c0.6,0.2,1.1,0.4,1.7,0.6c2.1,0.7,4.3,1.2,6.5,1.5c0.6,0.1,1.1,0.1,1.7,0.2c3.2,0.2,6.4,0,9.7-0.7
			c0.1,0,0.3-0.1,0.4-0.1c2.5-0.6,4.8-1.4,7-2.4c2-0.9,3.8-2,5.5-3.3c3.3-2.6,3.2-2.6,4.5-4c1.3-1.4,2.5-2.8,3.5-4.4
			C1248.2,712.9,1249.1,711.3,1249.9,709.6z"/>
	</g>
	<g>
		<path class="st18" d="M426,732.1c-1,1.6-2.2,3-3.5,4.4c-1.4,1.4-2.8,2.8-4.4,4c0,0-0.1,0-0.1,0.1c-1.7,1.3-3.5,2.4-5.5,3.3
			c-2.2,1-4.5,1.9-7,2.4c-0.1,0-0.2,0.1-0.4,0.1c-3.3,0.7-6.5,0.9-9.7,0.7c-0.6,0-1.1-0.1-1.7-0.2c-1.3-0.2-2.6-0.4-3.9-0.7
			c-0.4-0.1-0.9-0.2-1.3-0.3c-0.2-0.1-0.4-0.1-0.7-0.2c-0.2-0.1-0.4-0.1-0.6-0.2c-0.6-0.2-1.2-0.4-1.7-0.6c-1.7-0.6-3.2-1.4-4.8-2.3
			c-2.5-1.4-4.7-3.2-6.8-5.2c-4.3-4.3-7.6-9.9-9-16.3c-4.2-18.2,7.1-36.4,25.3-40.6c2.3-0.5,4.6-0.8,6.8-0.9c1.4,0,2.8,0,4.2,0.2
			c1.1,0.1,2.2,0.3,3.3,0.5c0.2,0,0.3,0.1,0.5,0.1c2.4,0.5,4.8,1.3,7,2.3c1.1,0.5,2.2,1.1,3.3,1.7c0.9,0.5,1.7,1.1,2.6,1.7
			c0.7,0.5,1.4,1.1,2,1.6c0.3,0.3,0.6,0.5,0.9,0.8c0.2,0.1,0.3,0.3,0.5,0.4c0.2,0.1,0.3,0.3,0.4,0.4c1.9,1.9,3.7,4.1,5.1,6.5
			c1.5,2.4,2.6,5,3.5,7.8c0.2,0.7,0.4,1.4,0.5,2.1c0.4,1.6,0.6,3.1,0.7,4.7c0.2,2.1,0.2,4.1,0,6.1c0,0,0,0,0,0
			c-0.2,1.9-0.5,3.8-1,5.6c-0.5,1.8-1.1,3.5-1.9,5.2C427.9,728.9,427,730.5,426,732.1z"/>
		<path class="st19" d="M428.7,727.2c0.8-1.7,1.4-3.4,1.9-5.2c0.5-1.8,0.8-3.7,1-5.6c0,0,0,0,0,0c0.2-2,0.2-4,0-6.1
			c-0.1-1.6-0.4-3.1-0.7-4.7c-0.2-0.7-0.3-1.4-0.5-2.1c-0.8-2.8-2-5.4-3.5-7.8c-1.4-2.4-3.2-4.6-5.1-6.5c-0.1-0.1-0.3-0.3-0.4-0.4
			c-0.1-0.1-0.3-0.3-0.5-0.4c-0.3-0.3-0.6-0.6-0.9-0.8c-0.7-0.6-1.3-1.1-2-1.6c-0.8-0.6-1.7-1.2-2.6-1.7c-1.1-0.6-2.2-1.2-3.3-1.7
			c-2.2-1-4.6-1.8-7-2.3l-0.1,0.2c-0.1-0.1-0.2-0.2-0.4-0.3c-1.1-0.2-2.2-0.4-3.3-0.5c-1.4-0.1-2.8-0.2-4.2-0.2
			c0,1.1,0.6,2.1,1.6,2.6l4.6,2.3c1.2,0.6,1.9,2.2,1.4,3.5c0,0,0,0,0,0.1c-0.6,1.6,0.1,3.3,1.7,4.1l2.2,1.1c1.3,0.6,1.9,2.1,1.5,3.4
			c-0.6,1.6-2.3,2.3-3.8,1.6l-4.8-2.3c-0.7-0.3-1.4-0.4-2.1-0.1c-0.8,0.3-1.4,0.9-1.7,1.7c-0.5,1.3,0.2,2.8,1.5,3.4l7.7,3.8
			c1.3,0.6,1.9,2.1,1.5,3.4c-0.6,1.6-2.3,2.3-3.8,1.6l-6.8-3.3c-0.7-0.3-1.4-0.4-2.1-0.1c-0.8,0.3-1.4,0.9-1.7,1.7
			c-0.5,1.3,0.2,2.8,1.5,3.4l4.6,2.3c1.3,0.6,1.9,2.1,1.5,3.4c-0.6,1.6-2.3,2.3-3.8,1.6l-4.8-2.3c-0.7-0.3-1.4-0.4-2.1-0.1
			c-0.8,0.3-1.4,0.9-1.7,1.7c-0.5,1.3,0.2,2.8,1.5,3.4l5.5,2.7c1.3,0.6,1.9,2.1,1.5,3.4c-0.6,1.6-2.3,2.3-3.8,1.6l-1.7-0.8
			c-1.5-0.7-3.3-0.2-4.2,1.2c0,0,0,0,0,0.1c-0.7,1.2-2.4,1.6-3.6,1l-6.2-3c-0.7-0.3-1.4-0.4-2.1-0.1c-0.8,0.3-1.4,0.9-1.7,1.7
			c-0.5,1.3,0.2,2.8,1.5,3.4l4.1,2c1.3,0.6,1.9,2.1,1.5,3.4c-0.6,1.6-2.3,2.3-3.8,1.6l-3.4-1.7c2,2,4.3,3.8,6.8,5.2
			c1.5,0.9,3.1,1.7,4.8,2.3c0.6,0.2,1.1,0.4,1.7,0.6c0.2,0.1,0.4,0.1,0.6,0.2c0.2,0.1,0.4,0.1,0.7,0.2c0.4,0.1,0.9,0.2,1.3,0.3
			c1.3,0.3,2.6,0.6,3.9,0.7c0.6,0.1,1.1,0.1,1.7,0.2c3.2,0.2,6.4,0,9.7-0.7c0.1,0,0.3-0.1,0.4-0.1c2.5-0.6,4.8-1.4,7-2.4
			c2-0.9,3.8-2,5.5-3.3c0,0,0.1,0,0.1-0.1c1.6-1.2,3.1-2.5,4.4-4c1.3-1.4,2.5-2.8,3.5-4.4C427,730.5,427.9,728.9,428.7,727.2z
			 M408.9,684.6c-0.1-0.1-0.1-0.1-0.2-0.2L408.9,684.6L408.9,684.6z M378.9,739.4C378.9,739.4,378.9,739.4,378.9,739.4
			C378.9,739.4,378.9,739.4,378.9,739.4C378.9,739.4,378.9,739.4,378.9,739.4z"/>
		<path class="st20" d="M428.7,727.2c0.8-1.7,1.4-3.4,1.9-5.2c0.5-1.8,0.8-3.7,1-5.6l-0.1-0.1c0,0,0.1,0,0.1,0.1c0.2-2,0.2-4,0-6.1
			c-0.1-1.6-0.4-3.1-0.7-4.7c-0.2-0.7-0.3-1.4-0.5-2.1c-0.8-2.8-2-5.4-3.5-7.8c-1.9-3.1-4.2-5.9-6.9-8.2c-0.7-0.6-1.3-1.1-2-1.6
			c-0.8-0.6-1.7-1.2-2.6-1.7c-0.3,0-0.7,0-1,0.1c-0.8,0.3-1.4,0.9-1.7,1.7c-0.5,1.3,0.2,2.8,1.5,3.4l4.6,2.3
			c1.3,0.6,1.9,2.2,1.4,3.5c0,0,0,0,0,0.1c-0.6,1.6,0.1,3.3,1.7,4.1l2.2,1.1c1.3,0.6,1.9,2.1,1.5,3.4c-0.6,1.6-2.3,2.3-3.8,1.6
			l-4.8-2.3c-0.7-0.3-1.4-0.4-2.1-0.1c-0.8,0.3-1.4,0.9-1.7,1.7c-0.5,1.3,0.2,2.8,1.5,3.4l7.7,3.8c1.3,0.6,1.9,2.1,1.5,3.4
			c-0.6,1.6-2.3,2.3-3.8,1.6l-6.8-3.3c-0.7-0.3-1.4-0.4-2.1-0.1c-0.8,0.3-1.4,0.9-1.7,1.7c-0.5,1.3,0.2,2.8,1.5,3.4l4.6,2.3
			c1.3,0.6,1.9,2.1,1.5,3.4c-0.6,1.6-2.3,2.3-3.8,1.6l-4.8-2.3c-0.7-0.3-1.4-0.4-2.1-0.1c-0.8,0.3-1.4,0.9-1.7,1.7
			c-0.5,1.3,0.2,2.8,1.5,3.4l5.5,2.7c1.3,0.6,1.9,2.1,1.5,3.4c-0.6,1.6-2.3,2.3-3.8,1.6l-1.7-0.8c-1.5-0.7-3.3-0.2-4.2,1.2
			c0,0,0,0,0,0.1c-0.7,1.2-2.4,1.6-3.6,1l-6.2-3c-0.7-0.3-1.4-0.4-2.1-0.1c-0.8,0.3-1.4,0.9-1.7,1.7c-0.5,1.3,0.2,2.8,1.5,3.4l4.1,2
			c1.3,0.6,1.9,2.1,1.5,3.4c-0.6,1.6-2.3,2.3-3.8,1.6l-9-4.4c-0.7-0.3-1.4-0.4-2.1-0.1c-0.3,0.1-0.7,0.3-1,0.6
			c1.5,0.9,3.1,1.7,4.8,2.3c0.6,0.2,1.1,0.4,1.7,0.6c2.1,0.7,4.3,1.2,6.5,1.5c0.6,0.1,1.1,0.1,1.7,0.2c3.2,0.2,6.4,0,9.7-0.7
			c0.1,0,0.3-0.1,0.4-0.1c2.5-0.6,4.8-1.4,7-2.4c2-0.9,3.8-2,5.5-3.3c3.3-2.6,3.2-2.6,4.5-4c1.3-1.4,2.5-2.8,3.5-4.4
			C427,730.5,427.9,728.9,428.7,727.2z"/>
	</g>
	<circle class="st21" cx="573.6" cy="513.3" r="20.7"/>
	<circle class="st21" cx="381" cy="929.6" r="20.7"/>
	<circle class="st21" cx="905" cy="1078.7" r="20.7"/>
	<circle class="st21" cx="1135.9" cy="534" r="20.7"/>
</g>
<g id="Camada_1">
	<path class="st22" d="M1326.4,421H211.8c-18,0-32.6,14.6-32.6,32.6v745.3c0,18,14.6,32.6,32.6,32.6h1114.6
		c18,0,32.6-14.6,32.6-32.6V453.6C1359,435.6,1344.4,421,1326.4,421z M1340.9,1165c0,3.2-2.6,5.7-5.7,5.7H202.3
		c-3.2,0-5.7-2.6-5.7-5.7V459.1c0-3.2,2.6-5.7,5.7-5.7h1132.9c3.2,0,5.7,2.6,5.7,5.7V1165z"/>
	<rect x="41.1" y="1207" class="st23" width="1456.9" height="24.5"/>
	<path class="st24" d="M870.9,1207.4v3.6c0,6.8-5.5,12.2-12.2,12.2H681.1c-6.8,0-12.2-5.5-12.2-12.2v-3.6H870.9z"/>
	<circle class="st25" cx="771.9" cy="438.4" r="5.1"/>
	<path class="st26" d="M1497.5,1231.1v0.8c-1.7,0.9-3.5,1.8-5.5,2.6c-27.3,11.5-87,19.5-156.3,19.5H202.5
		c-73.7,0-136.5-9-161.1-21.7v-1.2H1497.5z"/>
</g>
<g id="Camada_4">
	<path class="st27" d="M1817.7,1003.4c-7.2,0-13.1-5.9-13.1-13v-3.3c0-7.2-5.9-13.1-13.1-13.1h-244.5c-7.2,0-13,5.8-13.1,12.9
		c-0.2,17.4-0.5,34.6,2.8,51.8c7.7,40.5,29.5,76.9,46.7,113.9c8.1,18,15.1,36.8,18.2,56.4c1.7,10.6,1.6,21.3,1.4,32.1
		c-0.1,7.3,5.8,13.3,13.1,13.3h111.3c7.3,0,13.2-6,13.1-13.3c-0.2-11.9-0.3-24,2-35.6c3.2-15.9,7-31.7,11.3-47.4
		c1.9-6.9,4.9-13.1,8.2-19.2c3.3-6.2,10.9-8.7,17.2-5.7c0,0,0,0,0,0c8.9,4.4,20.3,5,29.9,2.7c11.3-2.8,20.8-10.4,28.9-18.6
		c8.4-8.5,16.4-17.9,21.6-28.8c3.4-7.2,4.4-14.9,4.5-22.8c0.3-15,0-31.6-9.7-44c-3.6-4.6-8.2-8.3-13.1-11.4c-2.4-1.5-5-2.9-7.7-4.1
		c-4.5-2-9.5-2.8-14.5-2.8C1818.6,1003.4,1818.2,1003.4,1817.7,1003.4z M1837.8,1069.6l-12.3,20.6c-0.7,1.2-7.4,6.1-7.4,6.1
		c-5.5,3.7-12,5.7-18.7,5.7c-4.8,0-9.6,0-14.4,0c-0.2-0.8,0,0-0.7-3.5c-2.1-11.1,7.7-22.3,11.4-33.4c2.8-8.3,5.5-16.6,8.3-24.8
		c0.7-2.1,0.7-4.1,0.7-6.2c0-0.4,0-0.8,0.8-0.8l3.9,0c3.5,0,7.1,0.4,10.4,1.7c11.9,4.6,19.4,15.9,19.4,28.1
		C1839.1,1062.8,1838.6,1068.2,1837.8,1069.6z"/>
	<path class="st28" d="M1684.5,940.5c7-6-4.6-34.9-4-58c0.5-17.3,6-13,6-35c0-29.1-18-47-23-42c-3.8,3.8-1.9,16,9,36
		c12,22-10.3,27.1-7,53C1669.3,923.8,1681,943.5,1684.5,940.5z"/>
	<path class="st28" d="M1630.6,951c-3.3,1.7-19.5-13-20-30.8c-0.4-13.3,8.4-16.1,10.8-31.6c3.5-23.2-12.8-39.9-9.2-42.4
		c3.4-2.3,22.1,9.8,24.6,27c2.1,14.3-9,18.6-11.6,38.5C1622.3,934.3,1633.8,949.4,1630.6,951z"/>
	<path class="st28" d="M1736.6,947c-3.3,1.7-19.5-13-20-30.8c-0.4-13.3,8.4-16.1,10.8-31.6c3.5-23.2-12.8-39.9-9.2-42.4
		c3.4-2.3,22.1,9.8,24.6,27c2.1,14.3-9,18.6-11.6,38.5C1728.3,930.3,1739.8,945.4,1736.6,947z"/>
</g>
</svg>
