<?xml version="1.0" encoding="iso-8859-1"?>
<!-- Generator: Adobe Illustrator 23.0.1, SVG Export Plug-In . SVG Version: 6.00 Build 0)  -->
<svg version="1.1" xmlns="http://www.w3.org/2000/svg" xmlns:xlink="http://www.w3.org/1999/xlink" x="0px" y="0px"
	 viewBox="0 0 2500 2500" style="enable-background:new 0 0 2500 2500;" xml:space="preserve">
<g id="Camada_1">
	<path style="fill:none;" d="M0,0.002h2500v2499.996H0V0.002z"/>
	<path style="fill:#E34F26;" d="M2155.046,2214.718l-864.931,232.892L425.17,2214.718L225.578,52.39h2129.086L2155.046,2214.718z"/>
	<path style="fill:#EE652A;" d="M1290.108,227.535V2261.86l1.956,0.534l699.953-188.48L2153.58,227.535L1290.108,227.535
		L1290.108,227.535z"/>
	<g>
		<polygon style="fill:#FFFFFF;" points="1833.115,1835.795 1903.536,1026.026 1273.149,1026.026 1273.149,1283.142 
			1610.128,1284.216 1589.586,1624.562 1287.39,1709.639 1286.68,1993.155 1290.325,1994.233 		"/>
		<polygon style="fill:#FFFFFF;" points="1952.418,492.05 1273.149,492.05 1273.149,753.174 1926.021,753.174 		"/>
	</g>
	<g>
		<path style="opacity:0.05;fill:#EBEBEB;enable-background:new    ;" d="M940.213,1024.747l-2.553-26.832l-2.841-33.49
			l-17.602-211.251H647.298l22.982,272.852l122.869-1.279h69.957H940.213z"/>
		<polygon style="fill:#EBEBEB;" points="1287.39,1709.639 996.891,1636.29 979.289,1425.039 709.364,1425.039 744.575,1832.867 
			1290.108,1994.169 1290.108,1708.874 		"/>
		<polygon style="fill:#EBEBEB;" points="614.527,492.05 646.797,753.174 1290.108,753.174 1290.108,492.05 		"/>
		<polygon style="fill:#EBEBEB;" points="671.226,1026.026 691.762,1281.289 1290.108,1283.196 1290.108,1026.026 		"/>
	</g>
</g>
<g id="Camada_2">
	<path style="fill:#EBEBEB;" d="M951.26,1154.611l-45.116-531.999l-273.09,19.358l61.516,618.673"/>
</g>
</svg>
