<?xml version="1.0" encoding="iso-8859-1"?>
<!-- Generator: Adobe Illustrator 23.0.1, SVG Export Plug-In . SVG Version: 6.00 Build 0)  -->
<svg version="1.1" id="Camada_1" xmlns="http://www.w3.org/2000/svg" xmlns:xlink="http://www.w3.org/1999/xlink" x="0px" y="0px"
	 viewBox="0 0 2500 2500" style="enable-background:new 0 0 2500 2500;" xml:space="preserve">
<path style="fill:none;" d="M0,0.002h2500v2499.996H0V0.002z"/>
<path style="fill:#2062AF;" d="M2155.046,2214.718l-864.931,232.892L425.17,2214.718L225.578,52.39h2129.086L2155.046,2214.718z"/>
<path style="fill:#3C9CD7;" d="M1290.108,227.535V2261.86l1.956,0.534l699.953-188.48l161.563-1846.379L1290.108,227.535
	L1290.108,227.535z"/>
<path style="fill:#FFFFFF;" d="M1289.34,768.204l-619.06,257.822l20.53,255.263l598.531-255.911l636.681-272.211l26.397-261.124
	L1289.34,768.204L1289.34,768.204z"/>
<linearGradient id="SVGID_1_" gradientUnits="userSpaceOnUse" x1="-277.8053" y1="433.1996" x2="-277.8053" y2="322.6638" gradientTransform="matrix(4.6418 0 0 4.6418 2269.3206 -729.5372)">
	<stop  offset="0.387" style="stop-color:#D1D3D4;stop-opacity:0"/>
	<stop  offset="1" style="stop-color:#D1D3D4"/>
</linearGradient>
<path style="fill:url(#SVGID_1_);" d="M670.273,1026.026l20.529,255.263l598.531-255.911V768.204L670.273,1026.026z"/>
<linearGradient id="SVGID_2_" gradientUnits="userSpaceOnUse" x1="-139.6962" y1="378.0678" x2="-139.6962" y2="263.1709" gradientTransform="matrix(4.6418 0 0 4.6418 2269.3206 -729.5372)">
	<stop  offset="0.387" style="stop-color:#D1D3D4;stop-opacity:0"/>
	<stop  offset="1" style="stop-color:#D1D3D4"/>
</linearGradient>
<path style="fill:url(#SVGID_2_);" d="M1952.418,492.05L1289.34,768.204v257.174l636.681-272.211L1952.418,492.05z"/>
<linearGradient id="SVGID_3_" gradientUnits="userSpaceOnUse" x1="-344.2833" y1="482.4996" x2="-78.8024" y2="482.4996" gradientTransform="matrix(4.6418 0 0 4.6418 2269.3206 -729.5372)">
	<stop  offset="0" style="stop-color:#E8E7E5"/>
	<stop  offset="1" style="stop-color:#FFFFFF"/>
</linearGradient>
<path style="fill:url(#SVGID_3_);" d="M671.226,1026.026l20.536,255.263l918.366,2.927l-20.542,340.346l-302.196,85.077
	l-290.499-73.349l-17.602-211.251H709.364l35.211,407.828l545.75,161.366l542.79-158.438l70.421-809.769H671.226z"/>
<path style="opacity:0.05;enable-background:new    ;" d="M1289.34,1026.026H670.28l20.53,255.263l598.531,1.911L1289.34,1026.026
	L1289.34,1026.026z M1289.34,1708.828l-2.934,0.819l-290.461-73.349l-17.602-211.251H708.424l35.204,407.828l545.711,161.366
	V1708.828z"/>
<linearGradient id="SVGID_4_" gradientUnits="userSpaceOnUse" x1="-356.4982" y1="291.2983" x2="-68.2715" y2="291.2983" gradientTransform="matrix(4.6418 0 0 4.6418 2269.3206 -729.5372)">
	<stop  offset="0" style="stop-color:#E8E7E5"/>
	<stop  offset="1" style="stop-color:#FFFFFF"/>
</linearGradient>
<path style="fill:url(#SVGID_4_);" d="M614.527,492.05h1337.891l-26.397,261.124H646.797L614.527,492.05L614.527,492.05z"/>
<path style="opacity:0.05;enable-background:new    ;" d="M1289.34,492.05H614.527l32.271,261.124h642.542L1289.34,492.05
	L1289.34,492.05z"/>
</svg>
