<?xml version="1.0" encoding="utf-8"?>
<!-- Generator: Adobe Illustrator 23.0.1, SVG Export Plug-In . SVG Version: 6.00 Build 0)  -->
<svg version="1.1" id="Camada_1" xmlns="http://www.w3.org/2000/svg" xmlns:xlink="http://www.w3.org/1999/xlink" x="0px" y="0px"
	 viewBox="0 0 1980 1260" style="enable-background:new 0 0 1980 1260;" xml:space="preserve">
<style type="text/css">
	.st0{fill:#FF6366;}
	.st1{fill:#1C1A16;stroke:#000000;stroke-miterlimit:10;}
	.st2{fill:#251515;stroke:#000000;stroke-miterlimit:10;}
	.st3{fill:#1F1036;stroke:#000000;stroke-miterlimit:10;}
	.st4{fill:url(#SVGID_1_);}
	.st5{fill:url(#SVGID_2_);}
	.st6{fill:url(#SVGID_3_);}
	.st7{fill:url(#SVGID_4_);}
	.st8{fill:#8F383A;}
	.st9{fill:#BF4A4D;}
	.st10{fill:#803233;}
	.st11{fill:#8442E5;}
	.st12{fill:#6332AC;}
	.st13{fill:#422173;}
	.st14{fill:#FFC149;}
	.st15{fill:#BF9137;}
	.st16{fill:#806125;}
	.st17{fill:#3DE6FF;}
	.st18{fill:#2EACBF;}
	.st19{fill:#1E7380;}
	.st20{fill:#91E537;}
	.st21{fill:#6DAC29;}
	.st22{fill:#49731B;}
	.st23{fill:#E5D8F7;}
</style>
<path class="st0" d="M1816.9,1253.8H218.2c-29.4,0-57.2-14.9-74.5-40.6C29.1,1043.4,20.1,854.9,18.9,816.4
	c-8-253.3,114.4-427.8,162.7-494.6c36-49.8,173.2-227.5,415.7-295c35.2-9.8,464.1-121.3,726.7,197.9
	c42.5,51.7,73.8,106.3,96.8,160.1c14.8,34.7,46.6,57.1,82.1,58.2c102.2,3,206.7,38.8,293.2,118.4
	c123.5,113.6,176.7,285.2,162.7,439.1c-7.5,82.7-33.4,150.8-62,203.7C1880.3,1234.8,1849.9,1253.8,1816.9,1253.8z"/>
<path class="st1" d="M1565,205.6H322.4c-34.3,0-62.2,27.8-62.2,62.2v923.9c0,34.3,27.8,62.2,62.2,62.2h1242.7
	c34.3,0,62.2-27.8,62.2-62.2V267.8C1627.3,233.4,1599.5,205.6,1565,205.6z M1585.4,1196.9c0,8.9-7.3,16.1-16.1,16.1h-1250
	c-8.9,0-16.1-7.3-16.1-16.1V265.7c0-8.9,7.3-16.1,16.1-16.1h1250c8.9,0,16.1,7.3,16.1,16.1L1585.4,1196.9L1585.4,1196.9z"/>
<ellipse class="st2" cx="283.2" cy="731.8" rx="5.6" ry="6.1"/>
<ellipse class="st2" cx="283.2" cy="765.5" rx="4.6" ry="5.1"/>
<ellipse class="st2" cx="283.2" cy="698.1" rx="4.6" ry="5.1"/>
<path class="st2" d="M408.3,206.1v-3.1c0-2.6-2-4.6-4.6-4.6h-39.8c-2.6,0-4.6,2-4.6,4.6v3.1"/>
<path class="st2" d="M259.7,276.1h-3.1c-2.6,0-4.6,2-4.6,4.6v39.8c0,2.6,2,4.6,4.6,4.6h3.1"/>
<path class="st2" d="M465.6,206.1v-3.1c0-2.6-2-4.6-4.6-4.6h-39.8c-2.6,0-4.6,2-4.6,4.6v3.1"/>
<rect x="303.1" y="249.5" class="st3" width="1282.3" height="963.5"/>
<radialGradient id="SVGID_1_" cx="934.8032" cy="690.8477" r="326.0435" gradientUnits="userSpaceOnUse">
	<stop  offset="0" style="stop-color:#FFFFFF"/>
	<stop  offset="0" style="stop-color:#3E1F6C"/>
	<stop  offset="0.509" style="stop-color:#3D1E6A"/>
	<stop  offset="0.6924" style="stop-color:#391D63"/>
	<stop  offset="0.823" style="stop-color:#321958"/>
	<stop  offset="0.9279" style="stop-color:#291547"/>
	<stop  offset="1" style="stop-color:#1F1036"/>
</radialGradient>
<path class="st4" d="M1260.8,690.8c0,180.1-146,326-326,326c-33.5,0-65.9-5.1-96.3-14.5c-133.1-41.1-229.7-165-229.7-311.6
	c0-180.1,146-326,326-326c75.2,0,144.4,25.4,199.5,68.1C1211.3,492.6,1260.8,585.9,1260.8,690.8z"/>
<radialGradient id="SVGID_2_" cx="934.8032" cy="690.8477" r="296.4031" gradientUnits="userSpaceOnUse">
	<stop  offset="0" style="stop-color:#FFFFFF"/>
	<stop  offset="0" style="stop-color:#3E1F6C"/>
	<stop  offset="0.509" style="stop-color:#3D1E6A"/>
	<stop  offset="0.6924" style="stop-color:#391D63"/>
	<stop  offset="0.823" style="stop-color:#321958"/>
	<stop  offset="0.9279" style="stop-color:#291547"/>
	<stop  offset="1" style="stop-color:#1F1036"/>
</radialGradient>
<path class="st5" d="M1231.2,690.8c0,163.7-132.7,296.4-296.4,296.4c-30.5,0-59.9-4.6-87.6-13.2c-121-37.3-208.9-150-208.9-283.2
	c0-163.7,132.7-296.4,296.4-296.4c68.3,0,131.2,23.1,181.4,62C1186.1,510.6,1231.2,595.5,1231.2,690.8z"/>
<radialGradient id="SVGID_3_" cx="936.2767" cy="690.7137" r="269.4574" gradientUnits="userSpaceOnUse">
	<stop  offset="0" style="stop-color:#FFFFFF"/>
	<stop  offset="0" style="stop-color:#3E1F6C"/>
	<stop  offset="0.509" style="stop-color:#3D1E6A"/>
	<stop  offset="0.6924" style="stop-color:#391D63"/>
	<stop  offset="0.823" style="stop-color:#321958"/>
	<stop  offset="0.9279" style="stop-color:#291547"/>
	<stop  offset="1" style="stop-color:#1F1036"/>
</radialGradient>
<path class="st6" d="M1205.7,690.7c0,148.8-120.6,269.5-269.5,269.5c-27.7,0-54.4-4.2-79.6-12c-110-33.9-189.9-136.4-189.9-257.5
	c0-148.8,120.6-269.5,269.5-269.5c62.1,0,119.3,21,164.9,56.3C1164.8,526.9,1205.7,604,1205.7,690.7z"/>
<radialGradient id="SVGID_4_" cx="934.8032" cy="692.1872" r="244.9613" gradientUnits="userSpaceOnUse">
	<stop  offset="0" style="stop-color:#FFFFFF"/>
	<stop  offset="0" style="stop-color:#3E1F6C"/>
	<stop  offset="0.509" style="stop-color:#3D1E6A"/>
	<stop  offset="0.6924" style="stop-color:#391D63"/>
	<stop  offset="0.823" style="stop-color:#321958"/>
	<stop  offset="0.9279" style="stop-color:#291547"/>
	<stop  offset="1" style="stop-color:#1F1036"/>
</radialGradient>
<path class="st7" d="M1179.8,692.2c0,135.3-109.7,245-245,245c-25.2,0-49.5-3.8-72.4-10.9c-100-30.9-172.6-124-172.6-234.1
	c0-135.3,109.7-245,245-245c56.5,0,108.5,19.1,149.9,51.2C1142.5,543.2,1179.8,613.4,1179.8,692.2z"/>
<path class="st8" d="M1075.2,865.1c-17.8,14.4-37.1,25.7-57.3,33.8c-10.8,4.4-21.9,7.8-33.2,10.4c-6.7,1.5-13.4,2.7-20.1,3.6
	c7-5.6,13.7-11.5,20.1-17.6c86.6-83.3,116.5-214.9,65.2-331.2c-14.7-33.4-34.9-62.7-59.1-87.3c44.4,11.5,85.7,36.8,116.8,75.2
	C1185.2,647.3,1170.6,787.5,1075.2,865.1z"/>
<path class="st9" d="M973.4,911.5c2.9-0.5,5.9-1.1,8.8-1.7C979.3,910.4,976.4,911,973.4,911.5z"/>
<path class="st9" d="M1006.6,481.4c-1.3-0.4-2.6-0.9-3.9-1.3C1004,480.5,1005.3,480.9,1006.6,481.4L1006.6,481.4z"/>
<g>
	<path class="st0" d="M1156.6,712.8C1156.6,712.8,1156.6,712.8,1156.6,712.8c-1.2,12.6-3.4,25-6.6,37c-3.1,11.8-7.3,23.2-12.3,34.2
		c-5,11-10.9,21.6-17.6,31.7c-6.9,10.3-14.6,20-23,29c-8.9,9.5-18.6,18.2-29.1,26c-0.2,0.2-0.4,0.3-0.6,0.5
		c-11.2,8.3-23.3,15.6-36.2,21.8c-14.4,6.9-29.8,12.3-45.9,16.1c-0.8,0.2-1.7,0.4-2.5,0.6c-21.5,4.7-42.9,6.2-63.8,4.7
		c-3.8-0.3-7.6-0.6-11.3-1.1c-8.6-1.1-17.2-2.6-25.5-4.7c-2.9-0.7-5.8-1.5-8.6-2.3c-1.4-0.4-2.9-0.8-4.3-1.3
		c-1.4-0.4-2.8-0.9-4.2-1.4c-3.8-1.3-7.6-2.6-11.4-4.1c-10.5-4.1-20.6-9-30.3-14.7c-0.4-0.2-0.7-0.4-1.1-0.6
		c-16.2-9.5-31.2-21.1-44.6-34.5c-28.6-28.5-49.8-65-59.5-107.3C690.1,622.7,764.7,503,884.5,475.3c15.1-3.5,30.1-5.4,44.9-5.7
		c9.4-0.3,18.7,0.1,27.9,1.1c7.2,0.7,14.4,1.8,21.4,3.3c1,0.2,2.1,0.4,3.1,0.6c15.9,3.4,31.3,8.6,45.9,15.3
		c7.4,3.4,14.6,7.2,21.6,11.4c0,0,0,0,0.1,0c5.8,3.5,11.5,7.2,16.9,11.2c4.6,3.4,9.1,6.9,13.4,10.6c2.1,1.8,4.1,3.6,6.1,5.5
		c1,0.9,2,1.9,3,2.8c1,1,2,1.9,2.9,2.9c12.8,12.7,24.1,27,33.6,42.7c9.5,15.8,17.3,33,22.7,51.4c1.3,4.5,2.5,9,3.6,13.6
		c2.4,10.3,4,20.6,4.9,30.8C1157.9,686.2,1157.8,699.6,1156.6,712.8z"/>
	<path class="st9" d="M1137.7,784.1c5-11,9.1-22.5,12.3-34.2c3.3-12,5.5-24.4,6.6-37c0,0,0,0,0,0c1.2-13.2,1.3-26.6,0.1-40.2
		c-0.9-10.2-2.5-20.5-4.9-30.8c-1.1-4.6-2.3-9.2-3.6-13.6c-5.5-18.4-13.2-35.6-22.7-51.3c-9.5-15.7-20.8-30-33.6-42.7
		c-1-1-1.9-1.9-2.9-2.9c-1-0.9-2-1.9-3-2.8c-2-1.9-4.1-3.7-6.1-5.5c-4.3-3.7-8.8-7.3-13.4-10.6c-5.5-4-11.1-7.7-16.9-11.2
		c-7-4.2-14.2-8-21.6-11.4c-14.6-6.7-30-11.9-45.9-15.3l-0.7,1.4c-0.8-0.7-1.6-1.4-2.4-2.1c-7-1.4-14.2-2.5-21.4-3.2
		c-9.2-0.9-18.5-1.3-27.9-1.1c-0.1,7,4,13.7,10.6,16.9l30.5,14.9c8.2,4,12.4,14.4,9.4,23c0,0.1-0.1,0.3-0.1,0.4
		c-3.7,10.4,1,21.8,10.9,26.7l14.6,7.1c8.3,4.1,12.7,13.8,9.5,22.5c-3.7,10.3-15.4,14.9-25,10.2l-31.3-15.3
		c-4.5-2.2-9.4-2.4-13.8-0.9c-5.1,1.7-9.3,5.7-11.3,11.3c-3,8.7,1.4,18.2,9.6,22.2l50.9,24.9c8.3,4.1,12.7,13.8,9.5,22.5
		c-3.7,10.3-15.4,14.9-25,10.2l-44.5-21.7c-4.5-2.2-9.4-2.4-13.8-0.9c-5.1,1.7-9.3,5.7-11.3,11.3c-3,8.7,1.4,18.2,9.6,22.2
		l30.5,14.9c8.3,4.1,12.7,13.8,9.5,22.5c-3.7,10.3-15.4,14.9-25,10.2l-31.3-15.3c-4.5-2.2-9.4-2.4-13.8-0.9
		c-5.1,1.7-9.3,5.7-11.3,11.3c-3,8.7,1.4,18.2,9.6,22.2l36.5,17.8c8.3,4.1,12.7,13.8,9.5,22.5c-3.7,10.3-15.4,14.9-25,10.2
		l-11.4-5.6c-9.9-4.8-21.8-1.5-27.7,7.8c-0.1,0.1-0.2,0.2-0.2,0.3c-4.9,7.8-15.7,10.8-23.9,6.8L804,782.3c-4.5-2.2-9.4-2.4-13.8-0.9
		c-5.1,1.7-9.3,5.7-11.3,11.3c-3,8.7,1.4,18.2,9.6,22.2l26.8,13.1c8.3,4.1,12.7,13.8,9.5,22.5c-3.7,10.3-15.4,14.9-25,10.2l-22.6-11
		c13.4,13.4,28.4,24.9,44.6,34.4c10,5.9,20.5,11,31.4,15.3c3.7,1.5,7.5,2.9,11.4,4.1c1.4,0.5,2.8,0.9,4.2,1.4
		c1.4,0.4,2.8,0.9,4.3,1.3c2.9,0.8,5.7,1.6,8.6,2.3c8.4,2.1,16.9,3.6,25.5,4.7c3.7,0.5,7.5,0.8,11.3,1.1c20.9,1.5,42.4,0.1,63.8-4.7
		c0.8-0.2,1.7-0.4,2.5-0.6c16.2-3.8,31.5-9.2,45.9-16.1c12.9-6.2,25-13.5,36.2-21.8c0.2-0.2,0.4-0.3,0.6-0.5
		c10.5-7.8,20.3-16.6,29.1-26c8.5-9,16.2-18.7,23-29C1126.8,805.7,1132.6,795.1,1137.7,784.1z M1007.7,503.8c-0.3-0.4-0.7-0.8-1-1.2
		l1.3,0.6L1007.7,503.8z M810.3,864.4c0,0-0.1,0-0.1-0.1C810.2,864.3,810.3,864.3,810.3,864.4C810.3,864.4,810.3,864.4,810.3,864.4z
		"/>
	<path class="st10" d="M1156.6,712.8C1156.6,712.8,1156.6,712.8,1156.6,712.8c-1.2,12.6-3.4,25-6.6,37c-3.1,11.8-7.3,23.2-12.3,34.2
		c-5,11-10.9,21.6-17.6,31.7c-6.9,10.3-14.6,20-23,29c-8.9,9.5-18.6,18.2-29.1,26c-0.2,0.2-0.4,0.3-0.6,0.5
		c-11.2,8.3-23.3,15.6-36.2,21.8c-14.4,6.9-29.8,12.3-45.9,16.1c-0.8,0.2-1.7,0.4-2.5,0.6c-21.5,4.7-42.9,6.2-63.8,4.7
		c-3.8-0.3-7.6-0.6-11.3-1.1c-8.6-1.1-17.2-2.6-25.5-4.7c-2.9-0.7-5.8-1.5-8.6-2.3c-1.4-0.4-2.9-0.8-4.3-1.3
		c-1.4-0.4-2.8-0.9-4.2-1.4c-3.8-1.3-7.6-2.6-11.4-4.1c-10.5-4.1-20.6-9-30.3-14.7c-0.4-0.2-0.7-0.4-1.1-0.6c1.8-1.7,4-2.9,6.3-3.7
		c4.4-1.5,9.3-1.3,13.8,0.9l59,28.8c0.6,0.3,1.2,0.5,1.7,0.7l0.3,0.1c9.2,3.2,19.5-1.4,23-11c3.1-8.7-1.2-18.4-9.5-22.5l-26.8-13.1
		c-8.3-4-12.6-13.5-9.6-22.2c1.9-5.6,6.2-9.6,11.3-11.3c4.4-1.5,9.3-1.3,13.8,0.9l40.5,19.8c8.2,4,19,1,23.9-6.8
		c0.1-0.1,0.2-0.2,0.2-0.3c5.9-9.3,17.8-12.6,27.7-7.8l11.4,5.6c9.6,4.7,21.3,0.1,25-10.2c3.1-8.7-1.2-18.4-9.5-22.5l-36.5-17.8
		c-8.2-4-12.6-13.5-9.6-22.2c1.9-5.6,6.2-9.6,11.3-11.3c4.4-1.5,9.3-1.3,13.8,0.8l31.3,15.3c9.6,4.7,21.3,0.1,25-10.2
		c3.1-8.7-1.2-18.4-9.6-22.5l-30.5-14.9c-8.3-4-12.6-13.5-9.6-22.2c1.9-5.6,6.2-9.6,11.3-11.4c4.4-1.5,9.3-1.3,13.8,0.9l44.5,21.7
		c9.6,4.7,21.3,0.1,25-10.2c3.1-8.7-1.2-18.4-9.5-22.5l-50.9-24.8c-8.2-4-12.6-13.5-9.6-22.2c1.9-5.6,6.2-9.6,11.3-11.3
		c4.4-1.5,9.3-1.3,13.8,0.9l31.3,15.3c9.6,4.7,21.3,0.1,25-10.2c3.1-8.7-1.2-18.4-9.5-22.5l-14.6-7.1c-9.9-4.8-14.5-16.3-10.9-26.7
		c0-0.1,0.1-0.3,0.1-0.4c3.1-8.6-1.1-19-9.4-23l-30.5-14.9c-8.3-4-12.6-13.5-9.6-22.2c1.9-5.6,6.2-9.6,11.3-11.3
		c2.1-0.7,4.4-1.1,6.6-1v0c0,0,0,0,0.1,0c5.8,3.5,11.5,7.2,16.9,11.2c4.6,3.4,9.1,6.9,13.4,10.6c2.1,1.8,4.1,3.6,6.1,5.5
		c1,0.9,2,1.9,3,2.8c1,1,2,1.9,2.9,2.9c12.8,12.7,24.1,27,33.6,42.7c9.5,15.8,17.3,33,22.7,51.4c1.3,4.5,2.5,9,3.6,13.6
		c2.4,10.3,4,20.6,4.9,30.8C1157.9,686.2,1157.8,699.6,1156.6,712.8z"/>
</g>
<g>
	<path class="st11" d="M488.4,1085.4c-1.3,2-2.9,3.9-4.5,5.7c-1.7,1.9-3.7,3.6-5.7,5.1c0,0-0.1,0.1-0.1,0.1
		c-2.2,1.6-4.6,3.1-7.1,4.3c-2.8,1.4-5.8,2.4-9,3.2c-0.2,0-0.3,0.1-0.5,0.1c-4.2,0.9-8.4,1.2-12.6,0.9c-0.7-0.1-1.5-0.1-2.2-0.2
		c-1.7-0.2-3.4-0.5-5-0.9c-0.6-0.1-1.1-0.3-1.7-0.5c-0.3-0.1-0.6-0.2-0.8-0.3c-0.3-0.1-0.6-0.2-0.8-0.3c-0.8-0.3-1.5-0.5-2.2-0.8
		c-2.1-0.8-4.2-1.8-6.2-3c-3.2-1.9-6.1-4.1-8.8-6.8c-5.6-5.6-9.8-12.8-11.7-21.1c-5.5-23.6,9.2-47.1,32.8-52.5
		c3-0.7,5.9-1.1,8.8-1.1c1.8,0,3.7,0,5.5,0.2c1.4,0.1,2.8,0.4,4.2,0.6c0.2,0,0.4,0.1,0.6,0.1c3.1,0.7,6.2,1.7,9,3
		c1.5,0.7,2.9,1.4,4.3,2.2c1.1,0.7,2.3,1.4,3.3,2.2c0.9,0.7,1.8,1.4,2.6,2.1c0.4,0.3,0.8,0.7,1.2,1.1c0.2,0.2,0.4,0.4,0.6,0.6
		c0.2,0.2,0.4,0.4,0.6,0.6c2.5,2.5,4.7,5.3,6.6,8.4c1.9,3.1,3.4,6.5,4.5,10.1c0.3,0.9,0.5,1.8,0.7,2.7c0.5,2,0.8,4,1,6.1
		c0.2,2.7,0.2,5.3,0,7.9c0,0,0,0,0,0c-0.2,2.5-0.7,4.9-1.3,7.3c-0.6,2.3-1.4,4.6-2.4,6.7C490.9,1081.3,489.7,1083.4,488.4,1085.4z"
		/>
	<path class="st12" d="M491.9,1079.1c1-2.2,1.8-4.4,2.4-6.7c0.6-2.4,1.1-4.8,1.3-7.3c0,0,0,0,0,0c0.2-2.6,0.3-5.2,0-7.9
		c-0.2-2-0.5-4-1-6.1c-0.2-0.9-0.4-1.8-0.7-2.7c-1.1-3.6-2.6-7-4.5-10.1c-1.9-3.1-4.1-5.9-6.6-8.4c-0.2-0.2-0.4-0.4-0.6-0.6
		c-0.2-0.2-0.4-0.4-0.6-0.6c-0.4-0.4-0.8-0.7-1.2-1.1c-0.9-0.7-1.7-1.4-2.6-2.1c-1.1-0.8-2.2-1.5-3.3-2.2c-1.4-0.8-2.8-1.6-4.3-2.2
		c-2.9-1.3-5.9-2.3-9-3l-0.1,0.3c-0.2-0.1-0.3-0.3-0.5-0.4c-1.4-0.3-2.8-0.5-4.2-0.6c-1.8-0.2-3.6-0.3-5.5-0.2
		c0,1.4,0.8,2.7,2.1,3.3l6,2.9c1.6,0.8,2.4,2.8,1.8,4.5c0,0,0,0,0,0.1c-0.7,2,0.2,4.3,2.1,5.2l2.9,1.4c1.6,0.8,2.5,2.7,1.9,4.4
		c-0.7,2-3,2.9-4.9,2l-6.2-3c-0.9-0.4-1.9-0.5-2.7-0.2c-1,0.3-1.8,1.1-2.2,2.2c-0.6,1.7,0.3,3.6,1.9,4.4l10,4.9
		c1.6,0.8,2.5,2.7,1.9,4.4c-0.7,2-3,2.9-4.9,2l-8.8-4.3c-0.9-0.4-1.9-0.5-2.7-0.2c-1,0.3-1.8,1.1-2.2,2.2c-0.6,1.7,0.3,3.6,1.9,4.4
		l6,2.9c1.6,0.8,2.5,2.7,1.9,4.4c-0.7,2-3,2.9-4.9,2l-6.2-3c-0.9-0.4-1.9-0.5-2.7-0.2c-1,0.3-1.8,1.1-2.2,2.2
		c-0.6,1.7,0.3,3.6,1.9,4.4l7.2,3.5c1.6,0.8,2.5,2.7,1.9,4.4c-0.7,2-3,2.9-4.9,2l-2.2-1.1c-1.9-0.9-4.3-0.3-5.4,1.5c0,0,0,0,0,0.1
		c-1,1.5-3.1,2.1-4.7,1.3l-8-3.9c-0.9-0.4-1.9-0.5-2.7-0.2c-1,0.3-1.8,1.1-2.2,2.2c-0.6,1.7,0.3,3.6,1.9,4.4l5.3,2.6
		c1.6,0.8,2.5,2.7,1.9,4.4c-0.7,2-3,2.9-4.9,2l-4.4-2.2c2.6,2.6,5.6,4.9,8.8,6.8c2,1.2,4,2.2,6.2,3c0.7,0.3,1.5,0.6,2.2,0.8
		c0.3,0.1,0.6,0.2,0.8,0.3c0.3,0.1,0.6,0.2,0.8,0.3c0.6,0.2,1.1,0.3,1.7,0.5c1.6,0.4,3.3,0.7,5,0.9c0.7,0.1,1.5,0.2,2.2,0.2
		c4.1,0.3,8.3,0,12.6-0.9c0.2,0,0.3-0.1,0.5-0.1c3.2-0.7,6.2-1.8,9-3.2c2.5-1.2,4.9-2.6,7.1-4.3c0,0,0.1-0.1,0.1-0.1
		c2.1-1.5,4-3.3,5.7-5.1c1.7-1.8,3.2-3.7,4.5-5.7C489.7,1083.4,490.9,1081.3,491.9,1079.1z M466.3,1024c-0.1-0.1-0.1-0.2-0.2-0.2
		l0.3,0.1L466.3,1024z M427.5,1094.9C427.5,1094.9,427.5,1094.9,427.5,1094.9C427.5,1094.9,427.5,1094.9,427.5,1094.9
		C427.5,1094.9,427.5,1094.9,427.5,1094.9z"/>
	<path class="st13" d="M491.9,1079.1c1-2.2,1.8-4.4,2.4-6.7c0.6-2.4,1.1-4.8,1.3-7.3l-0.2-0.1c0.1,0,0.1,0.1,0.2,0.1
		c0.2-2.6,0.3-5.2,0-7.9c-0.2-2-0.5-4-1-6.1c-0.2-0.9-0.4-1.8-0.7-2.7c-1.1-3.6-2.6-7-4.5-10.1c-2.4-4-5.5-7.6-9-10.6
		c-0.9-0.7-1.7-1.4-2.6-2.1c-1.1-0.8-2.2-1.5-3.3-2.2c-0.4,0-0.9,0-1.3,0.2c-1,0.3-1.8,1.1-2.2,2.2c-0.6,1.7,0.3,3.6,1.9,4.4l6,2.9
		c1.6,0.8,2.4,2.8,1.8,4.5c0,0,0,0.1,0,0.1c-0.7,2,0.2,4.3,2.1,5.2l2.9,1.4c1.6,0.8,2.5,2.7,1.9,4.4c-0.7,2-3,2.9-4.9,2l-6.2-3
		c-0.9-0.4-1.9-0.5-2.7-0.2c-1,0.3-1.8,1.1-2.2,2.2c-0.6,1.7,0.3,3.6,1.9,4.4l10,4.9c1.6,0.8,2.5,2.7,1.9,4.4c-0.7,2-3,2.9-4.9,2
		l-8.8-4.3c-0.9-0.4-1.9-0.5-2.7-0.2c-1,0.3-1.8,1.1-2.2,2.2c-0.6,1.7,0.3,3.6,1.9,4.4l6,2.9c1.6,0.8,2.5,2.7,1.9,4.4
		c-0.7,2-3,2.9-4.9,2l-6.2-3c-0.9-0.4-1.9-0.5-2.7-0.2c-1,0.3-1.8,1.1-2.2,2.2c-0.6,1.7,0.3,3.6,1.9,4.4l7.2,3.5
		c1.6,0.8,2.5,2.7,1.9,4.4c-0.7,2-3,2.9-4.9,2l-2.2-1.1c-1.9-0.9-4.3-0.3-5.4,1.5c0,0,0,0,0,0.1c-1,1.5-3.1,2.1-4.7,1.3l-8-3.9
		c-0.9-0.4-1.9-0.5-2.7-0.2c-1,0.3-1.8,1.1-2.2,2.2c-0.6,1.7,0.3,3.6,1.9,4.4l5.3,2.6c1.6,0.8,2.5,2.7,1.9,4.4c-0.7,2-3,2.9-4.9,2
		l-11.6-5.7c-0.9-0.4-1.9-0.5-2.7-0.2c-0.5,0.2-0.9,0.4-1.2,0.7c2,1.2,4,2.2,6.2,3c0.7,0.3,1.5,0.6,2.2,0.8c2.7,0.9,5.5,1.5,8.4,1.9
		c0.7,0.1,1.5,0.2,2.2,0.2c4.1,0.3,8.3,0,12.6-0.9c0.2,0,0.3-0.1,0.5-0.1c3.2-0.7,6.2-1.8,9-3.2c2.5-1.2,4.9-2.6,7.1-4.3
		c4.2-3.4,4.1-3.3,5.9-5.2c1.7-1.8,3.2-3.7,4.5-5.7C489.7,1083.4,490.9,1081.3,491.9,1079.1z"/>
</g>
<g>
	<path class="st14" d="M1431.4,1005c-1.3,2-2.9,3.9-4.5,5.7c-1.7,1.9-3.7,3.6-5.7,5.1c0,0-0.1,0.1-0.1,0.1c-2.2,1.6-4.6,3.1-7.1,4.3
		c-2.8,1.4-5.8,2.4-9,3.2c-0.2,0-0.3,0.1-0.5,0.1c-4.2,0.9-8.4,1.2-12.6,0.9c-0.7-0.1-1.5-0.1-2.2-0.2c-1.7-0.2-3.4-0.5-5-0.9
		c-0.6-0.1-1.1-0.3-1.7-0.5c-0.3-0.1-0.6-0.2-0.8-0.3c-0.3-0.1-0.6-0.2-0.8-0.3c-0.8-0.3-1.5-0.5-2.2-0.8c-2.1-0.8-4.2-1.8-6.2-3
		c-3.2-1.9-6.1-4.1-8.8-6.8c-5.6-5.6-9.8-12.8-11.7-21.1c-5.5-23.6,9.2-47.1,32.8-52.5c3-0.7,5.9-1.1,8.8-1.1c1.8,0,3.7,0,5.5,0.2
		c1.4,0.1,2.8,0.4,4.2,0.6c0.2,0,0.4,0.1,0.6,0.1c3.1,0.7,6.2,1.7,9,3c1.5,0.7,2.9,1.4,4.3,2.2c1.1,0.7,2.3,1.4,3.3,2.2
		c0.9,0.7,1.8,1.4,2.6,2.1c0.4,0.3,0.8,0.7,1.2,1.1c0.2,0.2,0.4,0.4,0.6,0.6c0.2,0.2,0.4,0.4,0.6,0.6c2.5,2.5,4.7,5.3,6.6,8.4
		c1.9,3.1,3.4,6.5,4.5,10.1c0.3,0.9,0.5,1.8,0.7,2.7c0.5,2,0.8,4,1,6.1c0.2,2.7,0.2,5.3,0,7.9c0,0,0,0,0,0c-0.2,2.5-0.7,4.9-1.3,7.3
		c-0.6,2.3-1.4,4.6-2.4,6.7C1433.9,1000.9,1432.7,1003,1431.4,1005z"/>
	<path class="st15" d="M1434.9,998.8c1-2.2,1.8-4.4,2.4-6.7c0.6-2.4,1.1-4.8,1.3-7.3c0,0,0,0,0,0c0.2-2.6,0.3-5.2,0-7.9
		c-0.2-2-0.5-4-1-6.1c-0.2-0.9-0.4-1.8-0.7-2.7c-1.1-3.6-2.6-7-4.5-10.1c-1.9-3.1-4.1-5.9-6.6-8.4c-0.2-0.2-0.4-0.4-0.6-0.6
		c-0.2-0.2-0.4-0.4-0.6-0.6c-0.4-0.4-0.8-0.7-1.2-1.1c-0.9-0.7-1.7-1.4-2.6-2.1c-1.1-0.8-2.2-1.5-3.3-2.2c-1.4-0.8-2.8-1.6-4.3-2.2
		c-2.9-1.3-5.9-2.3-9-3l-0.1,0.3c-0.2-0.1-0.3-0.3-0.5-0.4c-1.4-0.3-2.8-0.5-4.2-0.6c-1.8-0.2-3.6-0.3-5.5-0.2
		c0,1.4,0.8,2.7,2.1,3.3l6,2.9c1.6,0.8,2.4,2.8,1.8,4.5c0,0,0,0,0,0.1c-0.7,2,0.2,4.3,2.1,5.2l2.9,1.4c1.6,0.8,2.5,2.7,1.9,4.4
		c-0.7,2-3,2.9-4.9,2l-6.2-3c-0.9-0.4-1.9-0.5-2.7-0.2c-1,0.3-1.8,1.1-2.2,2.2c-0.6,1.7,0.3,3.6,1.9,4.4l10,4.9
		c1.6,0.8,2.5,2.7,1.9,4.4c-0.7,2-3,2.9-4.9,2l-8.8-4.3c-0.9-0.4-1.9-0.5-2.7-0.2c-1,0.3-1.8,1.1-2.2,2.2c-0.6,1.7,0.3,3.6,1.9,4.4
		l6,2.9c1.6,0.8,2.5,2.7,1.9,4.4c-0.7,2-3,2.9-4.9,2l-6.2-3c-0.9-0.4-1.9-0.5-2.7-0.2c-1,0.3-1.8,1.1-2.2,2.2
		c-0.6,1.7,0.3,3.6,1.9,4.4l7.2,3.5c1.6,0.8,2.5,2.7,1.9,4.4c-0.7,2-3,2.9-4.9,2l-2.2-1.1c-1.9-0.9-4.3-0.3-5.4,1.5c0,0,0,0,0,0.1
		c-1,1.5-3.1,2.1-4.7,1.3l-8-3.9c-0.9-0.4-1.9-0.5-2.7-0.2c-1,0.3-1.8,1.1-2.2,2.2c-0.6,1.7,0.3,3.6,1.9,4.4l5.3,2.6
		c1.6,0.8,2.5,2.7,1.9,4.4c-0.7,2-3,2.9-4.9,2l-4.4-2.2c2.6,2.6,5.6,4.9,8.8,6.8c2,1.2,4,2.2,6.2,3c0.7,0.3,1.5,0.6,2.2,0.8
		c0.3,0.1,0.6,0.2,0.8,0.3c0.3,0.1,0.6,0.2,0.8,0.3c0.6,0.2,1.1,0.3,1.7,0.5c1.6,0.4,3.3,0.7,5,0.9c0.7,0.1,1.5,0.2,2.2,0.2
		c4.1,0.3,8.3,0,12.6-0.9c0.2,0,0.3-0.1,0.5-0.1c3.2-0.7,6.2-1.8,9-3.2c2.5-1.2,4.9-2.6,7.1-4.3c0,0,0.1-0.1,0.1-0.1
		c2.1-1.5,4-3.3,5.7-5.1c1.7-1.8,3.2-3.7,4.5-5.7C1432.7,1003,1433.9,1000.9,1434.9,998.8z M1409.3,943.7c-0.1-0.1-0.1-0.2-0.2-0.2
		l0.3,0.1L1409.3,943.7z M1370.5,1014.5C1370.5,1014.5,1370.5,1014.5,1370.5,1014.5C1370.5,1014.5,1370.5,1014.5,1370.5,1014.5
		C1370.5,1014.5,1370.5,1014.5,1370.5,1014.5z"/>
	<path class="st16" d="M1434.9,998.8c1-2.2,1.8-4.4,2.4-6.7c0.6-2.4,1.1-4.8,1.3-7.3l-0.2-0.1c0.1,0,0.1,0.1,0.2,0.1
		c0.2-2.6,0.3-5.2,0-7.9c-0.2-2-0.5-4-1-6.1c-0.2-0.9-0.4-1.8-0.7-2.7c-1.1-3.6-2.6-7-4.5-10.1c-2.4-4-5.5-7.6-9-10.6
		c-0.9-0.7-1.7-1.4-2.6-2.1c-1.1-0.8-2.2-1.5-3.3-2.2c-0.4,0-0.9,0-1.3,0.2c-1,0.3-1.8,1.1-2.2,2.2c-0.6,1.7,0.3,3.6,1.9,4.4l6,2.9
		c1.6,0.8,2.4,2.8,1.8,4.5c0,0,0,0.1,0,0.1c-0.7,2,0.2,4.3,2.1,5.2l2.9,1.4c1.6,0.8,2.5,2.7,1.9,4.4c-0.7,2-3,2.9-4.9,2l-6.2-3
		c-0.9-0.4-1.9-0.5-2.7-0.2c-1,0.3-1.8,1.1-2.2,2.2c-0.6,1.7,0.3,3.6,1.9,4.4l10,4.9c1.6,0.8,2.5,2.7,1.9,4.4c-0.7,2-3,2.9-4.9,2
		l-8.8-4.3c-0.9-0.4-1.9-0.5-2.7-0.2c-1,0.3-1.8,1.1-2.2,2.2c-0.6,1.7,0.3,3.6,1.9,4.4l6,2.9c1.6,0.8,2.5,2.7,1.9,4.4
		c-0.7,2-3,2.9-4.9,2l-6.2-3c-0.9-0.4-1.9-0.5-2.7-0.2c-1,0.3-1.8,1.1-2.2,2.2c-0.6,1.7,0.3,3.6,1.9,4.4l7.2,3.5
		c1.6,0.8,2.5,2.7,1.9,4.4c-0.7,2-3,2.9-4.9,2l-2.2-1.1c-1.9-0.9-4.3-0.3-5.4,1.5c0,0,0,0,0,0.1c-1,1.5-3.1,2.1-4.7,1.3l-8-3.9
		c-0.9-0.4-1.9-0.5-2.7-0.2c-1,0.3-1.8,1.1-2.2,2.2c-0.6,1.7,0.3,3.6,1.9,4.4l5.3,2.6c1.6,0.8,2.5,2.7,1.9,4.4c-0.7,2-3,2.9-4.9,2
		l-11.6-5.7c-0.9-0.4-1.9-0.5-2.7-0.2c-0.5,0.2-0.9,0.4-1.2,0.7c2,1.2,4,2.2,6.2,3c0.7,0.3,1.5,0.6,2.2,0.8c2.7,0.9,5.5,1.5,8.4,1.9
		c0.7,0.1,1.5,0.2,2.2,0.2c4.1,0.3,8.3,0,12.6-0.9c0.2,0,0.3-0.1,0.5-0.1c3.2-0.7,6.2-1.8,9-3.2c2.5-1.2,4.9-2.6,7.1-4.3
		c4.2-3.4,4.1-3.3,5.9-5.2c1.7-1.8,3.2-3.7,4.5-5.7C1432.7,1003,1433.9,1000.9,1434.9,998.8z"/>
</g>
<g>
	<path class="st17" d="M1565.4,607.2c-1.3,2-2.9,3.9-4.5,5.7c-1.7,1.9-3.7,3.6-5.7,5.1c0,0-0.1,0.1-0.1,0.1
		c-2.2,1.6-4.6,3.1-7.1,4.3c-2.8,1.4-5.8,2.4-9,3.2c-0.2,0-0.3,0.1-0.5,0.1c-4.2,0.9-8.4,1.2-12.6,0.9c-0.7-0.1-1.5-0.1-2.2-0.2
		c-1.7-0.2-3.4-0.5-5-0.9c-0.6-0.1-1.1-0.3-1.7-0.5c-0.3-0.1-0.6-0.2-0.8-0.3c-0.3-0.1-0.6-0.2-0.8-0.3c-0.8-0.3-1.5-0.5-2.2-0.8
		c-2.1-0.8-4.2-1.8-6.2-3c-3.2-1.9-6.1-4.1-8.8-6.8c-5.6-5.6-9.8-12.8-11.7-21.1c-5.5-23.6,9.2-47.1,32.8-52.5
		c3-0.7,5.9-1.1,8.8-1.1c1.8,0,3.7,0,5.5,0.2c1.4,0.1,2.8,0.4,4.2,0.6c0.2,0,0.4,0.1,0.6,0.1c3.1,0.7,6.2,1.7,9,3
		c1.5,0.7,2.9,1.4,4.3,2.2c1.1,0.7,2.3,1.4,3.3,2.2c0.9,0.7,1.8,1.4,2.6,2.1c0.4,0.3,0.8,0.7,1.2,1.1c0.2,0.2,0.4,0.4,0.6,0.6
		c0.2,0.2,0.4,0.4,0.6,0.6c2.5,2.5,4.7,5.3,6.6,8.4c1.9,3.1,3.4,6.5,4.5,10.1c0.3,0.9,0.5,1.8,0.7,2.7c0.5,2,0.8,4,1,6.1
		c0.2,2.7,0.2,5.3,0,7.9c0,0,0,0,0,0c-0.2,2.5-0.7,4.9-1.3,7.3c-0.6,2.3-1.4,4.6-2.4,6.7C1567.8,603.1,1566.7,605.2,1565.4,607.2z"
		/>
	<path class="st18" d="M1568.8,600.9c1-2.2,1.8-4.4,2.4-6.7c0.6-2.4,1.1-4.8,1.3-7.3c0,0,0,0,0,0c0.2-2.6,0.3-5.2,0-7.9
		c-0.2-2-0.5-4-1-6.1c-0.2-0.9-0.4-1.8-0.7-2.7c-1.1-3.6-2.6-7-4.5-10.1c-1.9-3.1-4.1-5.9-6.6-8.4c-0.2-0.2-0.4-0.4-0.6-0.6
		c-0.2-0.2-0.4-0.4-0.6-0.6c-0.4-0.4-0.8-0.7-1.2-1.1c-0.9-0.7-1.7-1.4-2.6-2.1c-1.1-0.8-2.2-1.5-3.3-2.2c-1.4-0.8-2.8-1.6-4.3-2.2
		c-2.9-1.3-5.9-2.3-9-3l-0.1,0.3c-0.2-0.1-0.3-0.3-0.5-0.4c-1.4-0.3-2.8-0.5-4.2-0.6c-1.8-0.2-3.6-0.3-5.5-0.2
		c0,1.4,0.8,2.7,2.1,3.3l6,2.9c1.6,0.8,2.4,2.8,1.8,4.5c0,0,0,0,0,0.1c-0.7,2,0.2,4.3,2.1,5.2l2.9,1.4c1.6,0.8,2.5,2.7,1.9,4.4
		c-0.7,2-3,2.9-4.9,2l-6.2-3c-0.9-0.4-1.9-0.5-2.7-0.2c-1,0.3-1.8,1.1-2.2,2.2c-0.6,1.7,0.3,3.6,1.9,4.4l10,4.9
		c1.6,0.8,2.5,2.7,1.9,4.4c-0.7,2-3,2.9-4.9,2l-8.8-4.3c-0.9-0.4-1.9-0.5-2.7-0.2c-1,0.3-1.8,1.1-2.2,2.2c-0.6,1.7,0.3,3.6,1.9,4.4
		l6,2.9c1.6,0.8,2.5,2.7,1.9,4.4c-0.7,2-3,2.9-4.9,2l-6.2-3c-0.9-0.4-1.9-0.5-2.7-0.2c-1,0.3-1.8,1.1-2.2,2.2
		c-0.6,1.7,0.3,3.6,1.9,4.4l7.2,3.5c1.6,0.8,2.5,2.7,1.9,4.4c-0.7,2-3,2.9-4.9,2l-2.2-1.1c-1.9-0.9-4.3-0.3-5.4,1.5c0,0,0,0,0,0.1
		c-1,1.5-3.1,2.1-4.7,1.3l-8-3.9c-0.9-0.4-1.9-0.5-2.7-0.2c-1,0.3-1.8,1.1-2.2,2.2c-0.6,1.7,0.3,3.6,1.9,4.4l5.3,2.6
		c1.6,0.8,2.5,2.7,1.9,4.4c-0.7,2-3,2.9-4.9,2l-4.4-2.2c2.6,2.6,5.6,4.9,8.8,6.8c2,1.2,4,2.2,6.2,3c0.7,0.3,1.5,0.6,2.2,0.8
		c0.3,0.1,0.6,0.2,0.8,0.3c0.3,0.1,0.6,0.2,0.8,0.3c0.6,0.2,1.1,0.3,1.7,0.5c1.6,0.4,3.3,0.7,5,0.9c0.7,0.1,1.5,0.2,2.2,0.2
		c4.1,0.3,8.3,0,12.6-0.9c0.2,0,0.3-0.1,0.5-0.1c3.2-0.7,6.2-1.8,9-3.2c2.5-1.2,4.9-2.6,7.1-4.3c0,0,0.1-0.1,0.1-0.1
		c2.1-1.5,4-3.3,5.7-5.1c1.7-1.8,3.2-3.7,4.5-5.7C1566.7,605.2,1567.8,603.1,1568.8,600.9z M1543.3,545.8c-0.1-0.1-0.1-0.2-0.2-0.2
		l0.3,0.1L1543.3,545.8z M1504.4,616.7C1504.4,616.7,1504.4,616.7,1504.4,616.7C1504.4,616.7,1504.4,616.7,1504.4,616.7
		C1504.5,616.7,1504.4,616.7,1504.4,616.7z"/>
	<path class="st19" d="M1568.8,600.9c1-2.2,1.8-4.4,2.4-6.7c0.6-2.4,1.1-4.8,1.3-7.3l-0.2-0.1c0.1,0,0.1,0.1,0.2,0.1
		c0.2-2.6,0.3-5.2,0-7.9c-0.2-2-0.5-4-1-6.1c-0.2-0.9-0.4-1.8-0.7-2.7c-1.1-3.6-2.6-7-4.5-10.1c-2.4-4-5.5-7.6-9-10.6
		c-0.9-0.7-1.7-1.4-2.6-2.1c-1.1-0.8-2.2-1.5-3.3-2.2c-0.4,0-0.9,0-1.3,0.2c-1,0.3-1.8,1.1-2.2,2.2c-0.6,1.7,0.3,3.6,1.9,4.4l6,2.9
		c1.6,0.8,2.4,2.8,1.8,4.5c0,0,0,0.1,0,0.1c-0.7,2,0.2,4.3,2.1,5.2l2.9,1.4c1.6,0.8,2.5,2.7,1.9,4.4c-0.7,2-3,2.9-4.9,2l-6.2-3
		c-0.9-0.4-1.9-0.5-2.7-0.2c-1,0.3-1.8,1.1-2.2,2.2c-0.6,1.7,0.3,3.6,1.9,4.4l10,4.9c1.6,0.8,2.5,2.7,1.9,4.4c-0.7,2-3,2.9-4.9,2
		l-8.8-4.3c-0.9-0.4-1.9-0.5-2.7-0.2c-1,0.3-1.8,1.1-2.2,2.2c-0.6,1.7,0.3,3.6,1.9,4.4l6,2.9c1.6,0.8,2.5,2.7,1.9,4.4
		c-0.7,2-3,2.9-4.9,2l-6.2-3c-0.9-0.4-1.9-0.5-2.7-0.2c-1,0.3-1.8,1.1-2.2,2.2c-0.6,1.7,0.3,3.6,1.9,4.4l7.2,3.5
		c1.6,0.8,2.5,2.7,1.9,4.4c-0.7,2-3,2.9-4.9,2l-2.2-1.1c-1.9-0.9-4.3-0.3-5.4,1.5c0,0,0,0,0,0.1c-1,1.5-3.1,2.1-4.7,1.3l-8-3.9
		c-0.9-0.4-1.9-0.5-2.7-0.2c-1,0.3-1.8,1.1-2.2,2.2c-0.6,1.7,0.3,3.6,1.9,4.4l5.3,2.6c1.6,0.8,2.5,2.7,1.9,4.4c-0.7,2-3,2.9-4.9,2
		l-11.6-5.7c-0.9-0.4-1.9-0.5-2.7-0.2c-0.5,0.2-0.9,0.4-1.2,0.7c2,1.2,4,2.2,6.2,3c0.7,0.3,1.5,0.6,2.2,0.8c2.7,0.9,5.5,1.5,8.4,1.9
		c0.7,0.1,1.5,0.2,2.2,0.2c4.1,0.3,8.3,0,12.6-0.9c0.2,0,0.3-0.1,0.5-0.1c3.2-0.7,6.2-1.8,9-3.2c2.5-1.2,4.9-2.6,7.1-4.3
		c4.2-3.4,4.1-3.3,5.9-5.2c1.7-1.8,3.2-3.7,4.5-5.7C1566.7,605.2,1567.8,603.1,1568.8,600.9z"/>
</g>
<g>
	<path class="st20" d="M503.1,629.9c-1.3,2-2.9,3.9-4.5,5.7c-1.7,1.9-3.7,3.6-5.7,5.1c0,0-0.1,0.1-0.1,0.1c-2.2,1.6-4.6,3.1-7.1,4.3
		c-2.8,1.4-5.8,2.4-9,3.2c-0.2,0-0.3,0.1-0.5,0.1c-4.2,0.9-8.4,1.2-12.6,0.9c-0.7-0.1-1.5-0.1-2.2-0.2c-1.7-0.2-3.4-0.5-5-0.9
		c-0.6-0.1-1.1-0.3-1.7-0.5c-0.3-0.1-0.6-0.2-0.8-0.3s-0.6-0.2-0.8-0.3c-0.8-0.3-1.5-0.5-2.2-0.8c-2.1-0.8-4.2-1.8-6.2-3
		c-3.2-1.9-6.1-4.1-8.8-6.8c-5.6-5.6-9.8-12.8-11.7-21.1c-5.5-23.6,9.2-47.1,32.8-52.5c3-0.7,5.9-1.1,8.8-1.1c1.8,0,3.7,0,5.5,0.2
		c1.4,0.1,2.8,0.4,4.2,0.6c0.2,0,0.4,0.1,0.6,0.1c3.1,0.7,6.2,1.7,9,3c1.5,0.7,2.9,1.4,4.3,2.2c1.1,0.7,2.3,1.4,3.3,2.2
		c0.9,0.7,1.8,1.4,2.6,2.1c0.4,0.3,0.8,0.7,1.2,1.1c0.2,0.2,0.4,0.4,0.6,0.6c0.2,0.2,0.4,0.4,0.6,0.6c2.5,2.5,4.7,5.3,6.6,8.4
		c1.9,3.1,3.4,6.5,4.5,10.1c0.3,0.9,0.5,1.8,0.7,2.7c0.5,2,0.8,4,1,6.1c0.2,2.7,0.2,5.3,0,7.9c0,0,0,0,0,0c-0.2,2.5-0.7,4.9-1.3,7.3
		c-0.6,2.3-1.4,4.6-2.4,6.7C505.6,625.9,504.4,628,503.1,629.9z"/>
	<path class="st21" d="M506.6,623.7c1-2.2,1.8-4.4,2.4-6.7c0.6-2.4,1.1-4.8,1.3-7.3c0,0,0,0,0,0c0.2-2.6,0.3-5.2,0-7.9
		c-0.2-2-0.5-4-1-6.1c-0.2-0.9-0.4-1.8-0.7-2.7c-1.1-3.6-2.6-7-4.5-10.1c-1.9-3.1-4.1-5.9-6.6-8.4c-0.2-0.2-0.4-0.4-0.6-0.6
		c-0.2-0.2-0.4-0.4-0.6-0.6c-0.4-0.4-0.8-0.7-1.2-1.1c-0.9-0.7-1.7-1.4-2.6-2.1c-1.1-0.8-2.2-1.5-3.3-2.2c-1.4-0.8-2.8-1.6-4.3-2.2
		c-2.9-1.3-5.9-2.3-9-3l-0.1,0.3c-0.2-0.1-0.3-0.3-0.5-0.4c-1.4-0.3-2.8-0.5-4.2-0.6c-1.8-0.2-3.6-0.3-5.5-0.2
		c0,1.4,0.8,2.7,2.1,3.3l6,2.9c1.6,0.8,2.4,2.8,1.8,4.5c0,0,0,0,0,0.1c-0.7,2,0.2,4.3,2.1,5.2l2.9,1.4c1.6,0.8,2.5,2.7,1.9,4.4
		c-0.7,2-3,2.9-4.9,2l-6.2-3c-0.9-0.4-1.9-0.5-2.7-0.2c-1,0.3-1.8,1.1-2.2,2.2c-0.6,1.7,0.3,3.6,1.9,4.4l10,4.9
		c1.6,0.8,2.5,2.7,1.9,4.4c-0.7,2-3,2.9-4.9,2l-8.8-4.3c-0.9-0.4-1.9-0.5-2.7-0.2c-1,0.3-1.8,1.1-2.2,2.2c-0.6,1.7,0.3,3.6,1.9,4.4
		l6,2.9c1.6,0.8,2.5,2.7,1.9,4.4c-0.7,2-3,2.9-4.9,2l-6.2-3c-0.9-0.4-1.9-0.5-2.7-0.2c-1,0.3-1.8,1.1-2.2,2.2
		c-0.6,1.7,0.3,3.6,1.9,4.4l7.2,3.5c1.6,0.8,2.5,2.7,1.9,4.4c-0.7,2-3,2.9-4.9,2l-2.2-1.1c-1.9-0.9-4.3-0.3-5.4,1.5c0,0,0,0,0,0.1
		c-1,1.5-3.1,2.1-4.7,1.3l-8-3.9c-0.9-0.4-1.9-0.5-2.7-0.2c-1,0.3-1.8,1.1-2.2,2.2c-0.6,1.7,0.3,3.6,1.9,4.4l5.3,2.6
		c1.6,0.8,2.5,2.7,1.9,4.4c-0.7,2-3,2.9-4.9,2l-4.4-2.2c2.6,2.6,5.6,4.9,8.8,6.8c2,1.2,4,2.2,6.2,3c0.7,0.3,1.5,0.6,2.2,0.8
		c0.3,0.1,0.6,0.2,0.8,0.3s0.6,0.2,0.8,0.3c0.6,0.2,1.1,0.3,1.7,0.5c1.6,0.4,3.3,0.7,5,0.9c0.7,0.1,1.5,0.2,2.2,0.2
		c4.1,0.3,8.3,0,12.6-0.9c0.2,0,0.3-0.1,0.5-0.1c3.2-0.7,6.2-1.8,9-3.2c2.5-1.2,4.9-2.6,7.1-4.3c0,0,0.1-0.1,0.1-0.1
		c2.1-1.5,4-3.3,5.7-5.1c1.7-1.8,3.2-3.7,4.5-5.7C504.4,628,505.6,625.9,506.6,623.7z M481,568.6c-0.1-0.1-0.1-0.2-0.2-0.2l0.3,0.1
		L481,568.6z M442.2,639.5C442.2,639.5,442.2,639.5,442.2,639.5C442.2,639.5,442.2,639.5,442.2,639.5
		C442.2,639.5,442.2,639.5,442.2,639.5z"/>
	<path class="st22" d="M506.6,623.7c1-2.2,1.8-4.4,2.4-6.7c0.6-2.4,1.1-4.8,1.3-7.3l-0.2-0.1c0.1,0,0.1,0.1,0.2,0.1
		c0.2-2.6,0.3-5.2,0-7.9c-0.2-2-0.5-4-1-6.1c-0.2-0.9-0.4-1.8-0.7-2.7c-1.1-3.6-2.6-7-4.5-10.1c-2.4-4-5.5-7.6-9-10.6
		c-0.9-0.7-1.7-1.4-2.6-2.1c-1.1-0.8-2.2-1.5-3.3-2.2c-0.4,0-0.9,0-1.3,0.2c-1,0.3-1.8,1.1-2.2,2.2c-0.6,1.7,0.3,3.6,1.9,4.4l6,2.9
		c1.6,0.8,2.4,2.8,1.8,4.5c0,0,0,0.1,0,0.1c-0.7,2,0.2,4.3,2.1,5.2l2.9,1.4c1.6,0.8,2.5,2.7,1.9,4.4c-0.7,2-3,2.9-4.9,2l-6.2-3
		c-0.9-0.4-1.9-0.5-2.7-0.2c-1,0.3-1.8,1.1-2.2,2.2c-0.6,1.7,0.3,3.6,1.9,4.4l10,4.9c1.6,0.8,2.5,2.7,1.9,4.4c-0.7,2-3,2.9-4.9,2
		l-8.8-4.3c-0.9-0.4-1.9-0.5-2.7-0.2c-1,0.3-1.8,1.1-2.2,2.2c-0.6,1.7,0.3,3.6,1.9,4.4l6,2.9c1.6,0.8,2.5,2.7,1.9,4.4
		c-0.7,2-3,2.9-4.9,2l-6.2-3c-0.9-0.4-1.9-0.5-2.7-0.2c-1,0.3-1.8,1.1-2.2,2.2c-0.6,1.7,0.3,3.6,1.9,4.4l7.2,3.5
		c1.6,0.8,2.5,2.7,1.9,4.4c-0.7,2-3,2.9-4.9,2L479,634c-1.9-0.9-4.3-0.3-5.4,1.5c0,0,0,0,0,0.1c-1,1.5-3.1,2.1-4.7,1.3l-8-3.9
		c-0.9-0.4-1.9-0.5-2.7-0.2c-1,0.3-1.8,1.1-2.2,2.2c-0.6,1.7,0.3,3.6,1.9,4.4l5.3,2.6c1.6,0.8,2.5,2.7,1.9,4.4c-0.7,2-3,2.9-4.9,2
		l-11.6-5.7c-0.9-0.4-1.9-0.5-2.7-0.2c-0.5,0.2-0.9,0.4-1.2,0.7c2,1.2,4,2.2,6.2,3c0.7,0.3,1.5,0.6,2.2,0.8c2.7,0.9,5.5,1.5,8.4,1.9
		c0.7,0.1,1.5,0.2,2.2,0.2c4.1,0.3,8.3,0,12.6-0.9c0.2,0,0.3-0.1,0.5-0.1c3.2-0.7,6.2-1.8,9-3.2c2.5-1.2,4.9-2.6,7.1-4.3
		c4.2-3.4,4.1-3.3,5.9-5.2c1.7-1.8,3.2-3.7,4.5-5.7C504.4,628,505.6,625.9,506.6,623.7z"/>
</g>
<circle class="st23" cx="694" cy="346.9" r="26.8"/>
<circle class="st23" cx="444.9" cy="885.4" r="26.8"/>
<circle class="st23" cx="1122.7" cy="1078.3" r="26.8"/>
<circle class="st23" cx="1421.4" cy="373.7" r="26.8"/>
</svg>
