<?xml version="1.0" encoding="iso-8859-1"?>
<!-- Generator: Adobe Illustrator 23.0.1, SVG Export Plug-In . SVG Version: 6.00 Build 0)  -->
<svg version="1.1" id="Camada_3" xmlns="http://www.w3.org/2000/svg" xmlns:xlink="http://www.w3.org/1999/xlink" x="0px" y="0px"
	 viewBox="0 0 2500 2500" style="enable-background:new 0 0 2500 2500;" xml:space="preserve">
<path style="fill:#CF649A;" d="M2013.654,1366.988c-74.105,0.418-138.274,18.216-192.093,44.716
	c-19.872-39.329-39.744-73.695-43.051-99.359c-3.726-29.808-8.28-48.027-3.726-83.627c4.55-35.608,25.249-86.115,25.249-90.255
	c-0.418-3.726-4.558-21.942-47.195-22.356c-42.637-0.414-79.487,8.28-83.627,19.458c-4.14,11.178-12.42,36.845-17.802,63.341
	c-7.452,38.915-85.283,176.776-129.58,249.224c-14.49-28.152-26.91-52.991-29.398-72.867c-3.722-29.803-8.28-48.023-3.722-83.623
	c4.554-35.608,25.254-86.111,25.254-90.251c-0.414-3.726-4.554-21.942-47.191-22.356c-42.646-0.414-79.487,8.28-83.627,19.458
	c-4.14,11.178-8.694,37.673-17.802,63.341c-8.698,25.668-112.197,255.849-139.106,315.878
	c-13.662,30.635-25.663,55.061-34.361,71.621c-8.694,16.56-0.414,1.242-1.242,2.898c-7.452,14.076-11.592,21.942-11.592,21.942
	v0.418c-5.796,10.35-12.006,20.281-14.908,20.281c-2.07,0-6.21-27.738,0.828-65.821c15.318-79.905,52.577-204.513,52.167-209.067
	c0-2.07,7.034-24.016-24.016-35.19c-30.222-11.178-40.981,7.452-43.469,7.452c-2.484,0-4.554,6.624-4.554,6.624
	s33.533-140.34-64.169-140.34c-61.271,0-145.726,66.653-187.539,127.51c-26.496,14.49-82.799,45.121-142.414,77.831
	c-22.77,12.42-46.367,25.668-68.723,37.673l-4.55-4.976c-118.402-126.268-337.405-215.691-328.297-385.429
	c3.312-61.685,24.84-224.385,420.622-421.446c324.157-161.458,583.732-117.16,628.853-18.63
	c64.169,140.758-138.688,402.402-475.675,440.076c-128.338,14.49-195.823-35.189-212.793-53.819
	c-17.802-19.458-20.286-20.286-26.91-16.56c-10.764,5.796-4.14,23.184,0,33.534c9.936,26.082,51.335,72.449,121.714,95.633
	c61.681,20.286,212.379,31.464,394.536-38.915c204.099-79.073,363.487-298.49,316.706-481.889
	c-47.609-186.711-357.277-247.983-649.971-144.07c-174.296,62.099-363.077,158.974-498.867,286.07
	c-161.458,150.694-187.125,282.344-176.362,336.991c37.678,194.991,306.356,322.088,413.994,416.064
	c-5.382,2.894-10.35,5.792-14.904,8.28c-53.819,26.491-258.746,133.72-310.082,247.151
	c-57.959,128.338,9.108,220.663,53.819,233.083c138.274,38.501,279.86-30.636,356.449-144.484
	c76.171-113.848,67.067-261.644,31.878-329.125l-1.246-2.484l42.227-24.84c27.328-16.146,54.237-31.05,77.831-43.887
	c-13.244,36.017-22.77,78.659-27.733,140.758c-5.796,72.867,24.012,167.254,63.341,204.513c17.388,16.142,38.087,16.56,50.921,16.56
	c45.539,0,66.239-37.678,89.009-82.799c28.152-55.061,52.991-118.816,52.991-118.816s-31.05,172.636,53.819,172.636
	c31.05,0,62.099-40.158,76.175-60.857v0.414c0,0,0.828-1.242,2.484-4.14c1.737-2.568,3.394-5.19,4.968-7.862v-0.828
	c12.42-21.528,40.157-70.793,81.557-152.35c53.401-105.155,104.74-236.805,104.74-236.805s4.968,32.292,20.286,85.283
	c9.104,31.468,28.975,65.825,44.293,99.359c-12.42,17.388-19.872,27.328-19.872,27.328l0.414,0.414
	c-9.932,13.248-21.114,27.328-32.701,41.399c-42.227,50.507-92.735,108.057-99.359,124.616c-7.866,19.454-6.21,33.943,9.108,45.539
	c11.178,8.28,31.05,9.932,52.163,8.28c38.088-2.488,64.583-12.006,77.831-17.806c20.7-7.452,44.297-18.63,67.067-35.19
	c41.399-30.631,66.653-74.101,64.169-132.06c-1.242-31.878-11.592-63.341-24.426-93.149c3.726-5.382,7.456-10.768,11.178-16.56
	c65.411-95.637,115.918-200.787,115.918-200.787s4.968,32.292,20.286,85.283c7.862,26.91,23.598,56.307,37.674,85.287
	c-61.271,50.093-99.773,108.052-113.02,146.14c-24.426,70.379-5.382,102.257,30.635,109.708c16.142,3.312,39.329-4.14,56.713-11.592
	c21.528-7.038,47.609-19.048,71.625-36.845c41.399-30.636,81.143-73.277,79.073-130.822c-1.242-26.496-8.28-52.577-17.802-77.417
	c52.163-21.528,119.64-33.948,205.341-23.598c184.227,21.528,220.659,136.618,213.625,184.641
	c-7.038,48.028-45.54,74.519-58.377,82.799c-12.834,7.866-16.974,10.768-15.732,16.56c1.656,8.698,7.452,8.28,18.63,6.628
	c15.318-2.488,96.875-39.329,100.187-127.92C2313.386,1489.949,2205.333,1365.751,2013.654,1366.988L2013.654,1366.988z
	 M592.825,1845.979c-60.857,66.653-146.554,91.907-182.985,70.379c-39.329-22.77-24.016-120.886,50.921-191.679
	c45.539-43.055,104.741-82.799,143.656-107.224c8.694-5.382,21.942-13.244,37.673-22.77c2.484-1.652,4.14-2.484,4.14-2.484
	c2.898-1.656,6.21-3.726,9.522-5.796C683.49,1687.419,656.994,1776.014,592.825,1845.979L592.825,1845.979z M1037.869,1543.349
	c-21.114,51.749-65.825,184.641-92.735,177.19c-23.188-6.21-37.259-106.811-4.558-206.169
	c16.56-50.098,51.749-109.708,72.449-132.896c33.538-37.26,69.965-49.679,79.077-34.362
	C1102.866,1366.988,1051.117,1511.058,1037.869,1543.349z M1405.082,1718.883c-9.108,4.558-17.388,7.866-21.114,5.386
	c-2.898-1.656,3.722-7.866,3.722-7.866s45.953-49.265,64.169-72.035c10.35-13.244,22.77-28.561,36.018-45.953v4.968
	C1487.881,1662.994,1430.75,1702.737,1405.082,1718.883L1405.082,1718.883z M1688.25,1654.3c-6.624-4.968-5.792-20.286,16.56-68.309
	c8.698-19.044,28.566-50.921,62.927-81.143c4.14,12.42,6.628,24.421,6.21,35.604C1773.537,1614.97,1720.546,1642.708,1688.25,1654.3
	z"/>
</svg>
